<svg width="350" height="237" viewBox="0 0 350 237" fill="none" xmlns="http://www.w3.org/2000/svg">
<path fill-rule="evenodd" clip-rule="evenodd" d="M142.623 84.3502C143.837 82.5682 146.273 82.0951 148.064 83.2942L154.554 87.6361C154.722 87.7487 154.879 87.8722 155.023 88.0048C155.407 87.8897 155.813 87.8277 156.234 87.8277C158.575 87.8277 160.472 89.7413 160.472 92.1013C160.472 92.83 160.291 93.5161 159.972 94.1166C160.898 94.1787 161.786 94.3836 162.614 94.7096L169.464 86.6318L179.01 94.7327L173.868 100.796C177.861 101.641 180.86 105.214 180.86 109.492C180.86 110.354 180.738 111.187 180.511 111.975L182.809 110.861L187.11 119.924L180.226 123.263C182.435 125.347 183.844 128.284 183.937 131.554C184.968 131.13 186.095 130.896 187.276 130.896C187.607 130.896 187.933 130.915 188.255 130.95L187.313 128.771L190.78 127.239L192.284 130.718L190.498 131.507C193.151 132.554 195.178 134.857 195.864 137.69C198.131 137.093 200.338 136.783 202.431 136.732C209.092 136.566 210.424 134.067 221.081 133.901L221.581 130.57C229.407 137.898 228.575 139.896 228.741 147.224C228.908 153.72 229.074 158.05 231.406 163.213L239.732 183.698L237.9 184.364L229.407 164.379C227.076 159.216 224.412 157.883 221.748 157.883C213.755 158.05 208.759 165.878 193.606 171.207C183.541 174.779 174.744 171.387 166.595 180.933L166.431 181.362C159.547 199.487 158.991 213.782 141.339 224.846L144.483 229.796L134.108 236.386L127.573 226.097L137.947 219.505L140.699 223.839C157.75 213.247 158.401 199.633 165.085 181.627L165.244 181.201L164.726 180.843L164.498 181.41C154.755 205.323 137.416 221.929 118.033 224.362H118.032C118.758 225.328 118.947 226.65 118.409 227.833C117.622 229.566 115.572 230.342 113.833 229.57L107.535 226.767C105.797 225.992 105.026 223.96 105.814 222.227C106.601 220.493 108.651 219.717 110.39 220.49L116.687 223.293C116.715 223.305 116.742 223.317 116.769 223.33C136.199 221.456 153.757 204.824 163.661 180.833L163.894 180.266L163.371 179.904L163.091 180.471C151.59 203.652 135.081 221.675 97.4367 216.002C97.1244 217.895 95.4929 219.339 93.5279 219.339C91.3398 219.339 89.5646 217.548 89.5646 215.342C89.5646 213.135 91.3398 211.345 93.5279 211.345C95.5373 211.345 97.198 212.855 97.4559 214.81C134.662 220.432 150.581 202.835 162.033 179.736L162.312 179.171L161.819 178.83L161.489 179.419C133.466 229.014 93.4997 210.864 87.1031 205.408L85.5882 207.011L81.4785 203.059L85.395 198.915L89.5048 202.867L87.91 204.554C94.2302 210.127 135.144 228.755 162.746 174.742L163.071 174.102C167.532 160.992 173.931 151.853 180.818 145.895C179.767 144.762 179.007 143.352 178.655 141.786C176.807 143.013 174.594 143.727 172.215 143.727C165.737 143.727 160.487 138.433 160.487 131.901C160.487 131.372 160.521 130.851 160.588 130.34L158.682 131.617L147.147 114.083L153.479 109.841C152.051 108.573 151.027 106.85 150.632 104.897L144.942 100.693C142.796 99.1078 142.356 96.0916 143.958 93.9582C144.758 92.8944 145.914 92.2505 147.139 92.0687L143.67 89.7478C141.878 88.5487 141.409 86.1323 142.623 84.3502ZM139.139 225.969C138.057 224.264 135.785 223.767 134.067 224.86C132.348 225.951 131.832 228.219 132.916 229.923C133.999 231.628 136.27 232.124 137.988 231.033C139.707 229.941 140.223 227.674 139.139 225.969ZM222.663 145.726C221.295 145.726 220.186 146.845 220.186 148.224C220.186 149.603 221.295 150.722 222.663 150.722C224.032 150.722 225.141 149.603 225.141 148.224C225.141 146.845 224.032 145.726 222.663 145.726ZM172.604 92.6076C171.022 91.2652 168.645 91.4717 167.291 93.0656C165.939 94.6611 166.124 97.0426 167.705 98.3849C169.287 99.7256 171.667 99.5208 173.019 97.9253C174.373 96.3315 174.186 93.9499 172.604 92.6076Z" fill="#FAFAFA"/>
<path d="M177.368 143.56C178.417 143.56 179.268 144.418 179.268 145.476C179.268 146.533 178.417 147.391 177.368 147.391C176.319 147.391 175.469 146.533 175.469 145.476C175.469 144.418 176.319 143.56 177.368 143.56Z" fill="#FAFAFA"/>
<path d="M190.107 126.193L184.872 128.733L182.376 123.475L187.611 120.935L190.107 126.193Z" fill="#FAFAFA"/>
<path d="M147.228 105.421C148.914 105.421 150.281 106.799 150.281 108.499C150.281 110.2 148.914 111.577 147.228 111.577C145.543 111.577 144.176 110.2 144.176 108.499C144.176 106.799 145.543 105.422 147.228 105.421Z" fill="#FAFAFA"/>
<path d="M155.976 85.1029C156.668 85.1029 157.23 85.6692 157.23 86.367C157.23 87.0648 156.668 87.631 155.976 87.631C155.283 87.631 154.722 87.0648 154.722 86.367C154.722 85.6692 155.283 85.1029 155.976 85.1029Z" fill="#FAFAFA"/>
<path d="M153.558 80.8894C154.8 80.8894 155.806 81.9037 155.806 83.1561C155.806 84.4085 154.8 85.4227 153.558 85.4227C152.316 85.4227 151.31 84.4085 151.31 83.1561C151.31 81.9037 152.316 80.8894 153.558 80.8894Z" fill="#FAFAFA"/>
<path fill-rule="evenodd" clip-rule="evenodd" d="M154.735 77.3169L149.55 83.4292L143.49 78.2863L148.674 72.174L154.735 77.3169ZM150.667 75.968C149.663 75.1169 148.153 75.2468 147.294 76.2594C146.434 77.272 146.553 78.7842 147.557 79.6352C148.561 80.4879 150.071 80.358 150.93 79.3438C151.789 78.3312 151.671 76.8207 150.667 75.968Z" fill="#FAFAFA"/>
<path d="M139.012 11.5608C138.779 11.5608 138.591 11.7491 138.591 11.9814C138.591 12.2137 138.779 12.402 139.012 12.402C139.244 12.402 139.432 12.2137 139.432 11.9814C139.432 11.7491 139.244 11.5608 139.012 11.5608ZM139.012 10.1414C138.779 10.1414 138.591 10.3297 138.591 10.5619C138.591 10.7942 138.779 10.9825 139.012 10.9825C139.244 10.9825 139.432 10.7942 139.432 10.5619C139.432 10.3297 139.244 10.1414 139.012 10.1414ZM139.012 8.72188C138.779 8.72188 138.591 8.91018 138.591 9.14247C138.591 9.37475 138.779 9.56305 139.012 9.56305C139.244 9.56305 139.432 9.37475 139.432 9.14247C139.432 8.91018 139.244 8.72188 139.012 8.72188ZM137.592 11.5608C137.36 11.5608 137.171 11.7491 137.171 11.9814C137.171 12.2137 137.36 12.402 137.592 12.402C137.824 12.402 138.013 12.2137 138.013 11.9814C138.013 11.7491 137.824 11.5608 137.592 11.5608ZM137.592 10.1414C137.36 10.1414 137.171 10.3297 137.171 10.5619C137.171 10.7942 137.36 10.9825 137.592 10.9825C137.824 10.9825 138.013 10.7942 138.013 10.5619C138.013 10.3297 137.824 10.1414 137.592 10.1414ZM137.592 8.72188C137.36 8.72188 137.171 8.91018 137.171 9.14247C137.171 9.37475 137.36 9.56305 137.592 9.56305C137.824 9.56305 138.013 9.37475 138.013 9.14247C138.013 8.91018 137.824 8.72188 137.592 8.72188ZM136.173 11.5608C135.94 11.5608 135.752 11.7491 135.752 11.9814C135.752 12.2137 135.94 12.402 136.173 12.402C136.405 12.402 136.593 12.2137 136.593 11.9814C136.593 11.7491 136.405 11.5608 136.173 11.5608ZM136.173 10.1414C135.94 10.1414 135.752 10.3297 135.752 10.5619C135.752 10.7942 135.94 10.9825 136.173 10.9825C136.405 10.9825 136.593 10.7942 136.593 10.5619C136.593 10.3297 136.405 10.1414 136.173 10.1414ZM136.173 8.72188C135.94 8.72188 135.752 8.91018 135.752 9.14247C135.752 9.37475 135.94 9.56305 136.173 9.56305C136.405 9.56305 136.593 9.37475 136.593 9.14247C136.593 8.91018 136.405 8.72188 136.173 8.72188Z" fill="#E3E3E3"/>
<path d="M115.227 22.5491C114.998 22.5491 114.812 22.7349 114.812 22.9642C114.812 23.1935 114.998 23.3794 115.227 23.3794C115.457 23.3794 115.643 23.1935 115.643 22.9642C115.643 22.7349 115.457 22.5491 115.227 22.5491ZM115.227 21.1478C114.998 21.1478 114.812 21.3337 114.812 21.563C114.812 21.7923 114.998 21.9782 115.227 21.9782C115.457 21.9782 115.643 21.7923 115.643 21.563C115.643 21.3337 115.457 21.1478 115.227 21.1478ZM115.227 19.7466C114.998 19.7466 114.812 19.9325 114.812 20.1618C114.812 20.3911 114.998 20.5769 115.227 20.5769C115.457 20.5769 115.643 20.3911 115.643 20.1618C115.643 19.9325 115.457 19.7466 115.227 19.7466ZM113.826 22.5491C113.597 22.5491 113.411 22.7349 113.411 22.9642C113.411 23.1935 113.597 23.3794 113.826 23.3794C114.055 23.3794 114.241 23.1935 114.241 22.9642C114.241 22.7349 114.055 22.5491 113.826 22.5491ZM113.826 21.1478C113.597 21.1478 113.411 21.3337 113.411 21.563C113.411 21.7923 113.597 21.9782 113.826 21.9782C114.055 21.9782 114.241 21.7923 114.241 21.563C114.241 21.3337 114.055 21.1478 113.826 21.1478ZM113.826 19.7466C113.597 19.7466 113.411 19.9325 113.411 20.1618C113.411 20.3911 113.597 20.5769 113.826 20.5769C114.055 20.5769 114.241 20.3911 114.241 20.1618C114.241 19.9325 114.055 19.7466 113.826 19.7466ZM112.425 22.5491C112.196 22.5491 112.01 22.7349 112.01 22.9642C112.01 23.1935 112.196 23.3794 112.425 23.3794C112.654 23.3794 112.84 23.1935 112.84 22.9642C112.84 22.7349 112.654 22.5491 112.425 22.5491ZM112.425 21.1478C112.196 21.1478 112.01 21.3337 112.01 21.563C112.01 21.7923 112.196 21.9782 112.425 21.9782C112.654 21.9782 112.84 21.7923 112.84 21.563C112.84 21.3337 112.654 21.1478 112.425 21.1478ZM112.425 19.7466C112.196 19.7466 112.01 19.9325 112.01 20.1618C112.01 20.3911 112.196 20.5769 112.425 20.5769C112.654 20.5769 112.84 20.3911 112.84 20.1618C112.84 19.9325 112.654 19.7466 112.425 19.7466Z" fill="#E3E3E3"/>
<path d="M81.3201 73.187C81.3201 72.7927 81.2249 72.4316 81.0343 72.1036C80.8438 71.7756 80.5838 71.518 80.2544 71.3306C79.9289 71.1392 79.5696 71.0436 79.1767 71.0436C78.7837 71.0436 78.4225 71.1392 78.093 71.3306C77.7675 71.518 77.5095 71.7756 77.319 72.1036C77.1285 72.4316 77.0332 72.7927 77.0332 73.187C77.0332 73.5814 77.1285 73.9425 77.319 74.2705C77.5095 74.5984 77.7675 74.8581 78.093 75.0494C78.4225 75.2368 78.7837 75.3305 79.1767 75.3305C79.5696 75.3305 79.9289 75.2368 80.2544 75.0494C80.5838 74.8581 80.8438 74.5985 81.0343 74.2705C81.2249 73.9425 81.3201 73.5814 81.3201 73.187ZM80.0876 74.098H78.2657V72.2761H80.0876V74.098Z" fill="#E3E3E3"/>
<path d="M63.9929 86.8485C63.5343 86.8485 63.1626 87.2203 63.1626 87.6789C63.1626 88.1375 63.5343 88.5092 63.9929 88.5092C64.4515 88.5092 64.8233 88.1375 64.8233 87.6789C64.8233 87.2203 64.4515 86.8485 63.9929 86.8485ZM62.0208 88.8206C61.5622 88.8206 61.1904 89.1924 61.1904 89.651C61.1904 90.1096 61.5622 90.4814 62.0208 90.4814C62.4794 90.4814 62.8512 90.1096 62.8512 89.651C62.8512 89.1924 62.4794 88.8206 62.0208 88.8206Z" fill="#E3E3E3"/>
<path d="M13.9434 5.05534C13.9434 4.59639 13.8326 4.17606 13.6108 3.79436C13.3891 3.41267 13.0865 3.11279 12.703 2.89468C12.3242 2.67201 11.9061 2.56067 11.4488 2.56067C10.9914 2.56067 10.571 2.67201 10.1875 2.89468C9.80874 3.11279 9.50845 3.41267 9.2867 3.79436C9.06496 4.17606 8.9541 4.59639 8.9541 5.05534C8.9541 5.51428 9.06496 5.93461 9.2867 6.31631C9.50845 6.698 9.80874 7.00017 10.1875 7.22282C10.571 7.44093 10.9914 7.55 11.4488 7.55C11.9061 7.55 12.3242 7.44093 12.703 7.22282C13.0865 7.00016 13.3891 6.698 13.6108 6.31631C13.8326 5.93461 13.9434 5.51428 13.9434 5.05534ZM12.509 6.11557L10.3885 6.11557V3.9951H12.509V6.11557Z" fill="#E3E3E3"/>
<path d="M11.9843 9.62735C11.7073 9.62735 11.4827 9.85193 11.4827 10.129C11.4827 10.406 11.7073 10.6306 11.9843 10.6306C12.2614 10.6306 12.486 10.406 12.486 10.129C12.486 9.85193 12.2614 9.62735 11.9843 9.62735ZM11.9843 7.93433C11.7073 7.93433 11.4827 8.15892 11.4827 8.43596C11.4827 8.71301 11.7073 8.9376 11.9843 8.9376C12.2614 8.9376 12.486 8.71301 12.486 8.43596C12.486 8.15892 12.2614 7.93433 11.9843 7.93433ZM11.9843 6.24131C11.7073 6.24131 11.4827 6.4659 11.4827 6.74295C11.4827 7.02 11.7073 7.24458 11.9843 7.24458C12.2614 7.24458 12.486 7.02 12.486 6.74295C12.486 6.4659 12.2614 6.24131 11.9843 6.24131ZM10.2913 9.62735C10.0143 9.62735 9.7897 9.85193 9.7897 10.129C9.7897 10.406 10.0143 10.6306 10.2913 10.6306C10.5684 10.6306 10.793 10.406 10.793 10.129C10.793 9.85193 10.5684 9.62735 10.2913 9.62735ZM10.2913 7.93433C10.0143 7.93433 9.7897 8.15892 9.7897 8.43596C9.7897 8.71301 10.0143 8.9376 10.2913 8.9376C10.5684 8.9376 10.793 8.71301 10.793 8.43596C10.793 8.15892 10.5684 7.93433 10.2913 7.93433ZM10.2913 6.24131C10.0143 6.24131 9.7897 6.4659 9.7897 6.74295C9.7897 7.02 10.0143 7.24458 10.2913 7.24458C10.5684 7.24458 10.793 7.02 10.793 6.74295C10.793 6.4659 10.5684 6.24131 10.2913 6.24131ZM8.59831 9.62735C8.32127 9.62735 8.09668 9.85193 8.09668 10.129C8.09668 10.406 8.32127 10.6306 8.59831 10.6306C8.87536 10.6306 9.09995 10.406 9.09995 10.129C9.09995 9.85193 8.87536 9.62735 8.59831 9.62735ZM8.59831 7.93433C8.32127 7.93433 8.09668 8.15892 8.09668 8.43596C8.09668 8.71301 8.32127 8.9376 8.59831 8.9376C8.87536 8.9376 9.09995 8.71301 9.09995 8.43596C9.09995 8.15892 8.87536 7.93433 8.59831 7.93433ZM8.59831 6.24131C8.32127 6.24131 8.09668 6.4659 8.09668 6.74295C8.09668 7.02 8.32127 7.24458 8.59831 7.24458C8.87536 7.24458 9.09995 7.02 9.09995 6.74295C9.09995 6.4659 8.87536 6.24131 8.59831 6.24131Z" fill="#E3E3E3"/>
<path d="M55.671 7.73684e-07C55.0423 7.73684e-07 54.5327 0.509655 54.5327 1.13835C54.5327 1.76704 55.0423 2.27669 55.671 2.27669C56.2997 2.27669 56.8094 1.76704 56.8094 1.13835C56.8094 0.509655 56.2997 7.73684e-07 55.671 7.73684e-07ZM52.9674 2.70357C52.3388 2.70357 51.8291 3.21323 51.8291 3.84192C51.8291 4.47061 52.3388 4.98027 52.9674 4.98027C53.5961 4.98027 54.1058 4.47061 54.1058 3.84192C54.1058 3.21323 53.5961 2.70357 52.9674 2.70357Z" fill="#E3E3E3"/>
<path d="M41.5696 4.48161C42.1176 3.93359 42.1176 3.04508 41.5696 2.49706C41.0216 1.94904 40.133 1.94904 39.585 2.49706L37.6005 4.48161C37.0524 5.02963 37.0524 5.91815 37.6005 6.46617C38.1485 7.01419 39.037 7.01419 39.585 6.46617L41.5696 4.48161Z" fill="#E3E3E3"/>
<path d="M28.0703 4.71004C27.4864 4.71004 27.013 5.18341 27.013 5.76734C27.013 6.35127 27.4864 6.82464 28.0703 6.82464C28.6543 6.82464 29.1276 6.35127 29.1276 5.76734C29.1276 5.18341 28.6543 4.71004 28.0703 4.71004ZM25.5593 7.22112C24.9753 7.22112 24.502 7.69449 24.502 8.27842C24.502 8.86235 24.9753 9.33572 25.5593 9.33572C26.1432 9.33572 26.6166 8.86235 26.6166 8.27842C26.6166 7.69449 26.1432 7.22112 25.5593 7.22112Z" fill="#E3E3E3"/>
<path d="M11.6735 14.4161C11.1045 14.4161 10.6432 14.8774 10.6432 15.4464C10.6432 16.0154 11.1045 16.4766 11.6735 16.4766C12.2425 16.4766 12.7038 16.0154 12.7038 15.4464C12.7038 14.8774 12.2425 14.4161 11.6735 14.4161ZM9.22657 16.863C8.65756 16.863 8.19629 17.3243 8.19629 17.8933C8.19629 18.4623 8.65756 18.9236 9.22657 18.9236C9.79558 18.9236 10.2569 18.4623 10.2569 17.8933C10.2569 17.3243 9.79558 16.863 9.22657 16.863Z" fill="#E3E3E3"/>
<path d="M2.3334 17.7692C2.3334 17.3053 2.22135 16.8804 1.9972 16.4945C1.77305 16.1087 1.46716 15.8056 1.07958 15.5851C0.696659 15.36 0.274027 15.2475 -0.18828 15.2475C-0.650586 15.2475 -1.07556 15.36 -1.46316 15.5851C-1.84606 15.8056 -2.14961 16.1087 -2.37376 16.4945C-2.5979 16.8804 -2.70996 17.3053 -2.70996 17.7692C-2.70996 18.2331 -2.5979 18.658 -2.37376 19.0438C-2.14961 19.4296 -1.84606 19.7351 -1.46316 19.9601C-1.07556 20.1806 -0.650586 20.2909 -0.18828 20.2909C0.274027 20.2909 0.696659 20.1806 1.07958 19.9601C1.46716 19.7351 1.77305 19.4296 1.9972 19.0438C2.22135 18.658 2.3334 18.2331 2.3334 17.7692ZM0.883435 18.8409H-1.25999L-1.25999 16.6975H0.883435V18.8409Z" fill="#E3E3E3"/>
<path d="M61.8384 33.02L64.8193 30.039L61.8384 27.0581L58.8574 30.039L61.8384 33.02Z" fill="#E3E3E3"/>
<path d="M60.3506 2.89195C60.9365 2.30608 60.9365 1.3562 60.3506 0.770323C59.7648 0.184444 58.8149 0.184444 58.229 0.770323L56.1074 2.89195C55.5215 3.47783 55.5215 4.42772 56.1074 5.01359C56.6933 5.59946 57.6431 5.59946 58.229 5.01359L60.3506 2.89195Z" fill="#E3E3E3"/>
<path d="M47.3639 11.7373C47.3639 11.2013 47.2344 10.7104 46.9755 10.2647C46.7165 9.81891 46.3631 9.46869 45.9153 9.21398C45.4729 8.95394 44.9846 8.82391 44.4505 8.82391C43.9164 8.82391 43.4254 8.95394 42.9776 9.21398C42.5352 9.46869 42.1845 9.81892 41.9255 10.2647C41.6666 10.7104 41.5371 11.2013 41.5371 11.7373C41.5371 12.2733 41.6666 12.7642 41.9255 13.2099C42.1845 13.6557 42.5352 14.0086 42.9776 14.2686C43.4254 14.5233 43.9164 14.6507 44.4505 14.6507C44.9846 14.6507 45.4729 14.5233 45.9153 14.2686C46.3631 14.0086 46.7165 13.6557 46.9755 13.2099C47.2344 12.7642 47.3639 12.2733 47.3639 11.7373ZM45.6887 12.9755H43.2123V10.4991H45.6887V12.9755Z" fill="#E3E3E3"/>
<path d="M41.0036 13.9052C41.0036 13.3842 40.8777 12.9069 40.626 12.4736C40.3742 12.0402 40.0306 11.6997 39.5953 11.4521C39.1652 11.1993 38.6905 11.0729 38.1712 11.0729C37.652 11.0729 37.1746 11.1993 36.7393 11.4521C36.3092 11.6997 35.9683 12.0402 35.7165 12.4736C35.4647 12.9069 35.3389 13.3842 35.3389 13.9052C35.3389 14.4263 35.4647 14.9035 35.7165 15.3369C35.9683 15.7702 36.3092 16.1133 36.7393 16.3661C37.1746 16.6137 37.652 16.7376 38.1712 16.7376C38.6905 16.7376 39.1652 16.6137 39.5953 16.3661C40.0306 16.1133 40.3742 15.7702 40.626 15.3369C40.8777 14.9035 41.0036 14.4263 41.0036 13.9052ZM39.375 15.109H36.9675V12.7015H39.375V15.109Z" fill="#E3E3E3"/>
<path d="M25.5684 16.0663C26.111 15.5237 26.111 14.644 25.5684 14.1013C25.0258 13.5587 24.146 13.5587 23.6034 14.1013L21.6384 16.0663C21.0958 16.6089 21.0958 17.4887 21.6384 18.0313C22.181 18.5739 23.0608 18.5739 23.6034 18.0313L25.5684 16.0663Z" fill="#E3E3E3"/>
<path d="M17.0918 18.6889V23.4328H21.8357V18.6889H17.0918ZM20.8869 21.0609C20.8869 21.8469 20.2497 22.484 19.4637 22.484C18.6777 22.484 18.0406 21.8469 18.0406 21.0609C18.0406 20.2749 18.6777 19.6377 19.4637 19.6377C20.2497 19.6377 20.8869 20.2749 20.8869 21.0609Z" fill="#E3E3E3"/>
<path d="M8.65965 28.7491C8.37066 28.7491 8.1364 28.9834 8.1364 29.2724C8.1364 29.5614 8.37066 29.7956 8.65965 29.7956C8.94863 29.7956 9.18289 29.5614 9.18289 29.2724C9.18289 28.9834 8.94863 28.7491 8.65965 28.7491ZM8.65965 26.9832C8.37066 26.9832 8.1364 27.2174 8.1364 27.5064C8.1364 27.7954 8.37066 28.0297 8.65965 28.0297C8.94863 28.0297 9.18289 27.7954 9.18289 27.5064C9.18289 27.2174 8.94863 26.9832 8.65965 26.9832ZM8.65965 25.2172C8.37066 25.2172 8.1364 25.4515 8.1364 25.7405C8.1364 26.0294 8.37066 26.2637 8.65965 26.2637C8.94863 26.2637 9.18289 26.0294 9.18289 25.7405C9.18289 25.4515 8.94863 25.2172 8.65965 25.2172ZM6.89369 28.7491C6.60471 28.7491 6.37045 28.9834 6.37045 29.2724C6.37045 29.5614 6.60471 29.7956 6.89369 29.7956C7.18267 29.7956 7.41694 29.5614 7.41694 29.2724C7.41694 28.9834 7.18267 28.7491 6.89369 28.7491ZM6.89369 26.9832C6.60471 26.9832 6.37045 27.2174 6.37045 27.5064C6.37045 27.7954 6.60471 28.0297 6.89369 28.0297C7.18267 28.0297 7.41694 27.7954 7.41694 27.5064C7.41694 27.2174 7.18267 26.9832 6.89369 26.9832ZM6.89369 25.2172C6.60471 25.2172 6.37045 25.4515 6.37045 25.7405C6.37045 26.0294 6.60471 26.2637 6.89369 26.2637C7.18267 26.2637 7.41694 26.0294 7.41694 25.7405C7.41694 25.4515 7.18267 25.2172 6.89369 25.2172ZM5.12774 28.7491C4.83875 28.7491 4.60449 28.9834 4.60449 29.2724C4.60449 29.5614 4.83875 29.7956 5.12774 29.7956C5.41672 29.7956 5.65098 29.5614 5.65098 29.2724C5.65098 28.9834 5.41672 28.7491 5.12774 28.7491ZM5.12774 26.9832C4.83875 26.9832 4.60449 27.2174 4.60449 27.5064C4.60449 27.7954 4.83875 28.0297 5.12774 28.0297C5.41672 28.0297 5.65098 27.7954 5.65098 27.5064C5.65098 27.2174 5.41672 26.9832 5.12774 26.9832ZM5.12774 25.2172C4.83875 25.2172 4.60449 25.4515 4.60449 25.7405C4.60449 26.0294 4.83875 26.2637 5.12774 26.2637C5.41672 26.2637 5.65098 26.0294 5.65098 25.7405C5.65098 25.4515 5.41672 25.2172 5.12774 25.2172Z" fill="#E3E3E3"/>
<path d="M66.5093 71.508C66.2203 71.508 65.986 71.7422 65.986 72.0312C65.986 72.3202 66.2203 72.5545 66.5093 72.5545C66.7982 72.5545 67.0325 72.3202 67.0325 72.0312C67.0325 71.7422 66.7982 71.508 66.5093 71.508ZM66.5093 69.742C66.2203 69.742 65.986 69.9763 65.986 70.2653C65.986 70.5543 66.2203 70.7885 66.5093 70.7885C66.7982 70.7885 67.0325 70.5543 67.0325 70.2653C67.0325 69.9763 66.7982 69.742 66.5093 69.742ZM66.5093 67.9761C66.2203 67.9761 65.986 68.2103 65.986 68.4993C65.986 68.7883 66.2203 69.0226 66.5093 69.0226C66.7982 69.0226 67.0325 68.7883 67.0325 68.4993C67.0325 68.2103 66.7982 67.9761 66.5093 67.9761ZM64.7433 71.508C64.4543 71.508 64.2201 71.7422 64.2201 72.0312C64.2201 72.3202 64.4543 72.5545 64.7433 72.5545C65.0323 72.5545 65.2665 72.3202 65.2665 72.0312C65.2665 71.7422 65.0323 71.508 64.7433 71.508ZM64.7433 69.742C64.4543 69.742 64.2201 69.9763 64.2201 70.2653C64.2201 70.5543 64.4543 70.7885 64.7433 70.7885C65.0323 70.7885 65.2665 70.5543 65.2665 70.2653C65.2665 69.9763 65.0323 69.742 64.7433 69.742ZM64.7433 67.9761C64.4543 67.9761 64.2201 68.2103 64.2201 68.4993C64.2201 68.7883 64.4543 69.0226 64.7433 69.0226C65.0323 69.0226 65.2665 68.7883 65.2665 68.4993C65.2665 68.2103 65.0323 67.9761 64.7433 67.9761ZM62.9773 71.508C62.6884 71.508 62.4541 71.7422 62.4541 72.0312C62.4541 72.3202 62.6884 72.5545 62.9773 72.5545C63.2663 72.5545 63.5006 72.3202 63.5006 72.0312C63.5006 71.7422 63.2663 71.508 62.9773 71.508ZM62.9773 69.742C62.6884 69.742 62.4541 69.9763 62.4541 70.2653C62.4541 70.5543 62.6884 70.7885 62.9773 70.7885C63.2663 70.7885 63.5006 70.5543 63.5006 70.2653C63.5006 69.9763 63.2663 69.742 62.9773 69.742ZM62.9773 67.9761C62.6884 67.9761 62.4541 68.2103 62.4541 68.4993C62.4541 68.7883 62.6884 69.0226 62.9773 69.0226C63.2663 69.0226 63.5006 68.7883 63.5006 68.4993C63.5006 68.2103 63.2663 67.9761 62.9773 67.9761Z" fill="#E3E3E3"/>
<path d="M66.8496 17.846V23.2753H72.279V17.846H66.8496ZM71.1931 20.5607C71.1931 21.4602 70.4639 22.1895 69.5643 22.1895C68.6647 22.1895 67.9355 21.4602 67.9355 20.5607C67.9355 19.6611 68.6647 18.9318 69.5643 18.9318C70.4639 18.9318 71.1931 19.6611 71.1931 20.5607Z" fill="#E3E3E3"/>
<path d="M107.124 37.525V42.7653H112.364V37.525H107.124ZM111.316 40.1452C111.316 41.0134 110.612 41.7172 109.744 41.7172C108.876 41.7172 108.172 41.0134 108.172 40.1452C108.172 39.2769 108.876 38.5731 109.744 38.5731C110.612 38.5731 111.316 39.2769 111.316 40.1452Z" fill="#E3E3E3"/>
<path d="M71.8774 7.981C71.5376 7.981 71.2623 8.25638 71.2623 8.5961C71.2623 8.93581 71.5376 9.21119 71.8774 9.21119C72.2171 9.21119 72.4925 8.93581 72.4925 8.5961C72.4925 8.25638 72.2171 7.981 71.8774 7.981ZM71.8774 5.90504C71.5376 5.90504 71.2623 6.18043 71.2623 6.52014C71.2623 6.85985 71.5376 7.13524 71.8774 7.13524C72.2171 7.13524 72.4925 6.85985 72.4925 6.52014C72.4925 6.18043 72.2171 5.90504 71.8774 5.90504ZM71.8774 3.82909C71.5376 3.82909 71.2623 4.10447 71.2623 4.44419C71.2623 4.7839 71.5376 5.05928 71.8774 5.05928C72.2171 5.05928 72.4925 4.7839 72.4925 4.44419C72.4925 4.10447 72.2171 3.82909 71.8774 3.82909ZM69.8014 7.981C69.4617 7.981 69.1863 8.25638 69.1863 8.5961C69.1863 8.93581 69.4617 9.21119 69.8014 9.21119C70.1411 9.21119 70.4165 8.93581 70.4165 8.5961C70.4165 8.25638 70.1411 7.981 69.8014 7.981ZM69.8014 5.90504C69.4617 5.90504 69.1863 6.18043 69.1863 6.52014C69.1863 6.85985 69.4617 7.13524 69.8014 7.13524C70.1411 7.13524 70.4165 6.85985 70.4165 6.52014C70.4165 6.18043 70.1411 5.90504 69.8014 5.90504ZM69.8014 3.82909C69.4617 3.82909 69.1863 4.10447 69.1863 4.44419C69.1863 4.7839 69.4617 5.05928 69.8014 5.05928C70.1411 5.05928 70.4165 4.7839 70.4165 4.44419C70.4165 4.10447 70.1411 3.82909 69.8014 3.82909ZM67.7254 7.981C67.3857 7.981 67.1104 8.25638 67.1104 8.5961C67.1104 8.93581 67.3857 9.21119 67.7254 9.21119C68.0652 9.21119 68.3405 8.93581 68.3405 8.5961C68.3405 8.25638 68.0652 7.981 67.7254 7.981ZM67.7254 5.90504C67.3857 5.90504 67.1104 6.18043 67.1104 6.52014C67.1104 6.85985 67.3857 7.13524 67.7254 7.13524C68.0652 7.13524 68.3405 6.85985 68.3405 6.52014C68.3405 6.18043 68.0652 5.90504 67.7254 5.90504ZM67.7254 3.82909C67.3857 3.82909 67.1104 4.10447 67.1104 4.44419C67.1104 4.7839 67.3857 5.05928 67.7254 5.05928C68.0652 5.05928 68.3405 4.7839 68.3405 4.44419C68.3405 4.10447 68.0652 3.82909 67.7254 3.82909Z" fill="#E3E3E3"/>
<path d="M61.0372 10.9755C60.702 10.9755 60.4302 11.2473 60.4302 11.5825C60.4302 11.9178 60.702 12.1895 61.0372 12.1895C61.3725 12.1895 61.6442 11.9178 61.6442 11.5825C61.6442 11.2473 61.3725 10.9755 61.0372 10.9755ZM61.0372 8.92693C60.702 8.92693 60.4302 9.19869 60.4302 9.53393C60.4302 9.86916 60.702 10.1409 61.0372 10.1409C61.3725 10.1409 61.6442 9.86916 61.6442 9.53393C61.6442 9.19869 61.3725 8.92693 61.0372 8.92693ZM61.0372 6.87833C60.702 6.87833 60.4302 7.15008 60.4302 7.48532C60.4302 7.82056 60.702 8.09232 61.0372 8.09232C61.3725 8.09232 61.6442 7.82056 61.6442 7.48532C61.6442 7.15008 61.3725 6.87833 61.0372 6.87833ZM58.9886 10.9755C58.6534 10.9755 58.3816 11.2473 58.3816 11.5825C58.3816 11.9178 58.6534 12.1895 58.9886 12.1895C59.3238 12.1895 59.5956 11.9178 59.5956 11.5825C59.5956 11.2473 59.3238 10.9755 58.9886 10.9755ZM58.9886 8.92693C58.6534 8.92693 58.3816 9.19869 58.3816 9.53393C58.3816 9.86916 58.6534 10.1409 58.9886 10.1409C59.3238 10.1409 59.5956 9.86916 59.5956 9.53393C59.5956 9.19869 59.3238 8.92693 58.9886 8.92693ZM58.9886 6.87833C58.6534 6.87833 58.3816 7.15008 58.3816 7.48532C58.3816 7.82056 58.6534 8.09232 58.9886 8.09232C59.3238 8.09232 59.5956 7.82056 59.5956 7.48532C59.5956 7.15008 59.3238 6.87833 58.9886 6.87833ZM56.94 10.9755C56.6048 10.9755 56.333 11.2473 56.333 11.5825C56.333 11.9178 56.6048 12.1895 56.94 12.1895C57.2752 12.1895 57.547 11.9178 57.547 11.5825C57.547 11.2473 57.2752 10.9755 56.94 10.9755ZM56.94 8.92693C56.6048 8.92693 56.333 9.19869 56.333 9.53393C56.333 9.86916 56.6048 10.1409 56.94 10.1409C57.2752 10.1409 57.547 9.86916 57.547 9.53393C57.547 9.19869 57.2752 8.92693 56.94 8.92693ZM56.94 6.87833C56.6048 6.87833 56.333 7.15008 56.333 7.48532C56.333 7.82056 56.6048 8.09232 56.94 8.09232C57.2752 8.09232 57.547 7.82056 57.547 7.48532C57.547 7.15008 57.2752 6.87833 56.94 6.87833Z" fill="#E3E3E3"/>
<path d="M48.2298 20.8522C47.9006 20.8522 47.6336 21.1191 47.6336 21.4483C47.6336 21.7776 47.9006 22.0445 48.2298 22.0445C48.5591 22.0445 48.826 21.7776 48.826 21.4483C48.826 21.1191 48.5591 20.8522 48.2298 20.8522ZM48.2298 18.84C47.9006 18.84 47.6336 19.1069 47.6336 19.4362C47.6336 19.7655 47.9006 20.0324 48.2298 20.0324C48.5591 20.0324 48.826 19.7655 48.826 19.4362C48.826 19.1069 48.5591 18.84 48.2298 18.84ZM48.2298 16.8279C47.9006 16.8279 47.6336 17.0948 47.6336 17.4241C47.6336 17.7533 47.9006 18.0203 48.2298 18.0203C48.5591 18.0203 48.826 17.7533 48.826 17.4241C48.826 17.0948 48.5591 16.8279 48.2298 16.8279ZM46.2177 20.8522C45.8884 20.8522 45.6215 21.1191 45.6215 21.4483C45.6215 21.7776 45.8884 22.0445 46.2177 22.0445C46.547 22.0445 46.8139 21.7776 46.8139 21.4483C46.8139 21.1191 46.547 20.8522 46.2177 20.8522ZM46.2177 18.84C45.8884 18.84 45.6215 19.1069 45.6215 19.4362C45.6215 19.7655 45.8884 20.0324 46.2177 20.0324C46.547 20.0324 46.8139 19.7655 46.8139 19.4362C46.8139 19.1069 46.547 18.84 46.2177 18.84ZM46.2177 16.8279C45.8884 16.8279 45.6215 17.0948 45.6215 17.4241C45.6215 17.7533 45.8884 18.0203 46.2177 18.0203C46.547 18.0203 46.8139 17.7533 46.8139 17.4241C46.8139 17.0948 46.547 16.8279 46.2177 16.8279ZM44.2056 20.8522C43.8763 20.8522 43.6094 21.1191 43.6094 21.4483C43.6094 21.7776 43.8763 22.0445 44.2056 22.0445C44.5348 22.0445 44.8018 21.7776 44.8018 21.4483C44.8018 21.1191 44.5348 20.8522 44.2056 20.8522ZM44.2056 18.84C43.8763 18.84 43.6094 19.1069 43.6094 19.4362C43.6094 19.7655 43.8763 20.0324 44.2056 20.0324C44.5348 20.0324 44.8018 19.7655 44.8018 19.4362C44.8018 19.1069 44.5348 18.84 44.2056 18.84ZM44.2056 16.8279C43.8763 16.8279 43.6094 17.0948 43.6094 17.4241C43.6094 17.7533 43.8763 18.0203 44.2056 18.0203C44.5348 18.0203 44.8018 17.7533 44.8018 17.4241C44.8018 17.0948 44.5348 16.8279 44.2056 16.8279Z" fill="#E3E3E3"/>
<path d="M24.958 18.9684V23.8777H29.8674V18.9684H24.958ZM28.8855 21.423C28.8855 22.2364 28.2261 22.8958 27.4127 22.8958C26.5993 22.8958 25.9399 22.2364 25.9399 21.423C25.9399 20.6096 26.5993 19.9502 27.4127 19.9502C28.2261 19.9502 28.8855 20.6096 28.8855 21.423Z" fill="#E3E3E3"/>
<path d="M25.861 22.92C26.4171 22.3639 26.4171 21.4622 25.861 20.9061C25.3048 20.3499 24.4032 20.3499 23.847 20.9061L21.8331 22.92C21.277 23.4761 21.277 24.3778 21.8331 24.9339C22.3892 25.4901 23.2909 25.4901 23.847 24.9339L25.861 22.92Z" fill="#E3E3E3"/>
<path d="M7.12793 34.2377C6.55295 34.2377 6.08684 34.7038 6.08684 35.2788C6.08684 35.8537 6.55295 36.3198 7.12793 36.3198C7.70291 36.3198 8.16902 35.8537 8.16902 35.2788C8.16902 34.7038 7.70291 34.2377 7.12793 34.2377ZM4.65535 36.7103C4.08037 36.7103 3.61426 37.1764 3.61426 37.7513C3.61426 38.3263 4.08037 38.7924 4.65535 38.7924C5.23032 38.7924 5.69643 38.3263 5.69643 37.7513C5.69643 37.1764 5.23032 36.7103 4.65535 36.7103Z" fill="#E3E3E3"/>
<path d="M82.3512 5.52368C81.6539 5.52368 81.0886 6.08897 81.0886 6.7863C81.0886 7.48362 81.6539 8.04891 82.3512 8.04891C83.0485 8.04891 83.6138 7.48362 83.6138 6.7863C83.6138 6.08897 83.0485 5.52368 82.3512 5.52368ZM79.3525 8.52239C78.6551 8.52239 78.0898 9.08769 78.0898 9.78501C78.0898 10.4823 78.6551 11.0476 79.3525 11.0476C80.0498 11.0476 80.6151 10.4823 80.6151 9.78501C80.6151 9.08769 80.0498 8.52239 79.3525 8.52239Z" fill="#E3E3E3"/>
<path d="M92.076 25.4959L95.273 22.2988L92.076 19.1017L88.8789 22.2988L92.076 25.4959Z" fill="#E3E3E3"/>
<path d="M69.6468 11.8396C68.9464 11.8396 68.3787 12.4073 68.3787 13.1076C68.3787 13.8079 68.9464 14.3756 69.6468 14.3756C70.3471 14.3756 70.9148 13.8079 70.9148 13.1076C70.9148 12.4073 70.3471 11.8396 69.6468 11.8396ZM66.6352 14.8511C65.9349 14.8511 65.3672 15.4188 65.3672 16.1191C65.3672 16.8194 65.9349 17.3871 66.6352 17.3871C67.3355 17.3871 67.9032 16.8194 67.9032 16.1191C67.9032 15.4188 67.3355 14.8511 66.6352 14.8511Z" fill="#E3E3E3"/>
<path d="M65.5251 12.2722C66.1462 11.6511 66.1462 10.6443 65.5251 10.0232C64.9041 9.40221 63.8972 9.40221 63.2762 10.0232L61.0273 12.2722C60.4063 12.8932 60.4063 13.9001 61.0273 14.5211C61.6483 15.1421 62.6552 15.1421 63.2762 14.5211L65.5251 12.2722Z" fill="#E3E3E3"/>
<path d="M47.8643 24.2162V29.622H53.27V24.2162H47.8643ZM52.1889 26.9191C52.1889 27.8148 51.4628 28.5408 50.5671 28.5408C49.6715 28.5408 48.9454 27.8148 48.9454 26.9191C48.9454 26.0235 49.6715 25.2974 50.5671 25.2974C51.4628 25.2974 52.1889 26.0235 52.1889 26.9191Z" fill="#E3E3E3"/>
<path d="M50.2446 27.4673C50.8602 26.8517 50.8602 25.8536 50.2446 25.238C49.629 24.6224 48.6309 24.6224 48.0153 25.238L45.7859 27.4673C45.1703 28.083 45.1703 29.0811 45.7859 29.6967C46.4015 30.3123 47.3997 30.3123 48.0153 29.6967L50.2446 27.4673Z" fill="#E3E3E3"/>
<path d="M43.6422 26.9147C43.6422 26.3638 43.5092 25.8592 43.243 25.4011C42.9768 24.9429 42.6136 24.5829 42.1533 24.3211C41.6986 24.0539 41.1967 23.9202 40.6478 23.9202C40.0988 23.9202 39.5941 24.0539 39.1339 24.3211C38.6792 24.5829 38.3187 24.9429 38.0526 25.4011C37.7864 25.8592 37.6533 26.3638 37.6533 26.9147C37.6533 27.4656 37.7864 27.9701 38.0526 28.4283C38.3187 28.8864 38.6792 29.2491 39.1339 29.5164C39.5941 29.7782 40.0988 29.9091 40.6478 29.9091C41.1967 29.9091 41.6986 29.7782 42.1533 29.5164C42.6136 29.2491 42.9768 28.8864 43.243 28.4283C43.5092 27.9701 43.6422 27.4656 43.6422 26.9147ZM41.9204 28.1873H39.3751V25.642H41.9204V28.1873Z" fill="#E3E3E3"/>
<path d="M33.0369 34.3168L35.9909 31.3629L33.0369 28.409L30.083 31.3629L33.0369 34.3168Z" fill="#E3E3E3"/>
<path d="M30.2207 34.0753C30.2207 33.5418 30.0918 33.0532 29.834 32.6095C29.5763 32.1658 29.2245 31.8172 28.7788 31.5636C28.3384 31.3048 27.8524 31.1754 27.3208 31.1754C26.7891 31.1754 26.3004 31.3048 25.8547 31.5636C25.4144 31.8172 25.0653 32.1658 24.8075 32.6095C24.5498 33.0532 24.4209 33.5418 24.4209 34.0753C24.4209 34.6088 24.5498 35.0974 24.8075 35.5411C25.0653 35.9848 25.4144 36.336 25.8547 36.5948C26.3004 36.8484 26.7891 36.9752 27.3208 36.9752C27.8524 36.9752 28.3384 36.8484 28.7788 36.5948C29.2245 36.336 29.5763 35.9848 29.834 35.5411C30.0918 35.0974 30.2207 34.6088 30.2207 34.0753ZM28.5532 35.3077H26.0883V32.8428H28.5532V35.3077Z" fill="#E3E3E3"/>
<path d="M86.8795 36.8453C86.8795 36.2348 86.732 35.6756 86.437 35.1678C86.142 34.6601 85.7394 34.2612 85.2294 33.971C84.7254 33.6748 84.1692 33.5267 83.5608 33.5267C82.9524 33.5267 82.3931 33.6748 81.883 33.971C81.3791 34.2612 80.9796 34.6601 80.6846 35.1678C80.3897 35.6756 80.2422 36.2348 80.2422 36.8453C80.2422 37.4558 80.3897 38.015 80.6846 38.5228C80.9796 39.0305 81.3791 39.4325 81.883 39.7287C82.3931 40.0189 82.9524 40.1639 83.5608 40.1639C84.1692 40.1639 84.7254 40.0189 85.2294 39.7287C85.7395 39.4325 86.142 39.0305 86.437 38.5228C86.732 38.015 86.8795 37.4558 86.8795 36.8453ZM84.9712 38.2557H82.1504V35.4349H84.9712V38.2557Z" fill="#E3E3E3"/>
<path d="M72.2338 29.5825L75.539 26.2774L72.2338 22.9723L68.9287 26.2774L72.2338 29.5825Z" fill="#E3E3E3"/>
<path d="M95.2703 13.6488C94.9022 13.6488 94.6039 13.9472 94.6039 14.3153C94.6039 14.6833 94.9022 14.9817 95.2703 14.9817C95.6384 14.9817 95.9367 14.6833 95.9367 14.3153C95.9367 13.9472 95.6384 13.6488 95.2703 13.6488ZM95.2703 11.3997C94.9022 11.3997 94.6039 11.698 94.6039 12.0661C94.6039 12.4341 94.9022 12.7325 95.2703 12.7325C95.6384 12.7325 95.9367 12.4341 95.9367 12.0661C95.9367 11.698 95.6384 11.3997 95.2703 11.3997ZM95.2703 9.15046C94.9022 9.15046 94.6039 9.44882 94.6039 9.81689C94.6039 10.1849 94.9022 10.4833 95.2703 10.4833C95.6384 10.4833 95.9367 10.1849 95.9367 9.81689C95.9367 9.44882 95.6384 9.15046 95.2703 9.15046ZM93.0211 13.6488C92.653 13.6488 92.3547 13.9472 92.3547 14.3153C92.3547 14.6833 92.653 14.9817 93.0211 14.9817C93.3892 14.9817 93.6875 14.6833 93.6875 14.3153C93.6875 13.9472 93.3892 13.6488 93.0211 13.6488ZM93.0211 11.3997C92.653 11.3997 92.3547 11.698 92.3547 12.0661C92.3547 12.4341 92.653 12.7325 93.0211 12.7325C93.3892 12.7325 93.6875 12.4341 93.6875 12.0661C93.6875 11.698 93.3892 11.3997 93.0211 11.3997ZM93.0211 9.15046C92.653 9.15046 92.3547 9.44882 92.3547 9.81689C92.3547 10.1849 92.653 10.4833 93.0211 10.4833C93.3892 10.4833 93.6875 10.1849 93.6875 9.81689C93.6875 9.44882 93.3892 9.15046 93.0211 9.15046ZM90.7719 13.6488C90.4038 13.6488 90.1055 13.9472 90.1055 14.3153C90.1055 14.6833 90.4038 14.9817 90.7719 14.9817C91.14 14.9817 91.4383 14.6833 91.4383 14.3153C91.4383 13.9472 91.14 13.6488 90.7719 13.6488ZM90.7719 11.3997C90.4038 11.3997 90.1055 11.698 90.1055 12.0661C90.1055 12.4341 90.4038 12.7325 90.7719 12.7325C91.14 12.7325 91.4383 12.4341 91.4383 12.0661C91.4383 11.698 91.14 11.3997 90.7719 11.3997ZM90.7719 9.15046C90.4038 9.15046 90.1055 9.44882 90.1055 9.81689C90.1055 10.1849 90.4038 10.4833 90.7719 10.4833C91.14 10.4833 91.4383 10.1849 91.4383 9.81689C91.4383 9.44882 91.14 9.15046 90.7719 9.15046Z" fill="#E3E3E3"/>
<path d="M76.5064 19.5046C76.1458 19.5046 75.8535 19.7969 75.8535 20.1575C75.8535 20.5181 76.1458 20.8104 76.5064 20.8104C76.867 20.8104 77.1593 20.5181 77.1593 20.1575C77.1593 19.7969 76.867 19.5046 76.5064 19.5046ZM76.5064 17.3009C76.1458 17.3009 75.8535 17.5933 75.8535 17.9539C75.8535 18.3145 76.1458 18.6068 76.5064 18.6068C76.867 18.6068 77.1593 18.3145 77.1593 17.9539C77.1593 17.5933 76.867 17.3009 76.5064 17.3009ZM76.5064 15.0973C76.1458 15.0973 75.8535 15.3897 75.8535 15.7503C75.8535 16.1109 76.1458 16.4032 76.5064 16.4032C76.867 16.4032 77.1593 16.1109 77.1593 15.7503C77.1593 15.3897 76.867 15.0973 76.5064 15.0973ZM74.3028 19.5046C73.9422 19.5046 73.6499 19.7969 73.6499 20.1575C73.6499 20.5181 73.9422 20.8104 74.3028 20.8104C74.6634 20.8104 74.9557 20.5181 74.9557 20.1575C74.9557 19.7969 74.6634 19.5046 74.3028 19.5046ZM74.3028 17.3009C73.9422 17.3009 73.6499 17.5933 73.6499 17.9539C73.6499 18.3145 73.9422 18.6068 74.3028 18.6068C74.6634 18.6068 74.9557 18.3145 74.9557 17.9539C74.9557 17.5933 74.6634 17.3009 74.3028 17.3009ZM74.3028 15.0973C73.9422 15.0973 73.6499 15.3897 73.6499 15.7503C73.6499 16.1109 73.9422 16.4032 74.3028 16.4032C74.6634 16.4032 74.9557 16.1109 74.9557 15.7503C74.9557 15.3897 74.6634 15.0973 74.3028 15.0973ZM72.0992 19.5046C71.7386 19.5046 71.4463 19.7969 71.4463 20.1575C71.4463 20.5181 71.7386 20.8104 72.0992 20.8104C72.4598 20.8104 72.7521 20.5181 72.7521 20.1575C72.7521 19.7969 72.4598 19.5046 72.0992 19.5046ZM72.0992 17.3009C71.7386 17.3009 71.4463 17.5933 71.4463 17.9539C71.4463 18.3145 71.7386 18.6068 72.0992 18.6068C72.4598 18.6068 72.7521 18.3145 72.7521 17.9539C72.7521 17.5933 72.4598 17.3009 72.0992 17.3009ZM72.0992 15.0973C71.7386 15.0973 71.4463 15.3897 71.4463 15.7503C71.4463 16.1109 71.7386 16.4032 72.0992 16.4032C72.4598 16.4032 72.7521 16.1109 72.7521 15.7503C72.7521 15.3897 72.4598 15.0973 72.0992 15.0973Z" fill="#E3E3E3"/>
<path d="M63.8201 21.3377C64.4628 20.6951 64.4628 19.6531 63.8201 19.0105C63.1775 18.3678 62.1355 18.3678 61.4928 19.0105L59.1656 21.3377C58.5229 21.9804 58.5229 23.0223 59.1656 23.665C59.8082 24.3077 60.8502 24.3077 61.4928 23.665L63.8201 21.3377Z" fill="#E3E3E3"/>
<path d="M61.0553 23.0579C61.0553 22.4698 60.9132 21.9311 60.629 21.4419C60.3448 20.9527 59.957 20.5684 59.4656 20.2889C58.9802 20.0036 58.4443 19.8609 57.8582 19.8609C57.2721 19.8609 56.7333 20.0036 56.2419 20.2889C55.7564 20.5684 55.3716 20.9528 55.0874 21.4419C54.8032 21.9311 54.6611 22.4698 54.6611 23.0579C54.6611 23.6461 54.8032 24.1848 55.0874 24.674C55.3716 25.1631 55.7564 25.5504 56.2419 25.8357C56.7333 26.1152 57.2721 26.255 57.8582 26.255C58.4443 26.255 58.9802 26.1152 59.4656 25.8357C59.957 25.5503 60.3448 25.1631 60.629 24.674C60.9132 24.1848 61.0553 23.6461 61.0553 23.0579ZM59.217 24.4167H56.4994V21.6992H59.217V24.4167Z" fill="#E3E3E3"/>
<path d="M46.0801 29.0142V34.4909H51.5567V29.0142H46.0801ZM50.4614 31.7525C50.4614 32.66 49.7258 33.3955 48.8184 33.3955C47.911 33.3955 47.1754 32.66 47.1754 31.7525C47.1754 30.8451 47.911 30.1095 48.8184 30.1095C49.7258 30.1095 50.4614 30.8451 50.4614 31.7525Z" fill="#E3E3E3"/>
<path d="M41.1702 39.6957C41.1702 39.1275 41.0329 38.607 40.7583 38.1344C40.4838 37.6617 40.1091 37.2904 39.6343 37.0203C39.1652 36.7446 38.6475 36.6067 38.0812 36.6067C37.5149 36.6067 36.9943 36.7446 36.5195 37.0203C36.0504 37.2904 35.6786 37.6617 35.404 38.1344C35.1295 38.607 34.9922 39.1275 34.9922 39.6957C34.9922 40.264 35.1295 40.7845 35.404 41.2571C35.6786 41.7298 36.0504 42.1039 36.5195 42.3796C36.9943 42.6497 37.5149 42.7847 38.0812 42.7847C38.6475 42.7847 39.1652 42.6497 39.6343 42.3796C40.1091 42.1039 40.4838 41.7298 40.7583 41.2571C41.0329 40.7845 41.1702 40.264 41.1702 39.6957ZM39.394 41.0086H36.7684V38.3829H39.394V41.0086Z" fill="#E3E3E3"/>
<path d="M21.2164 49.0758C20.8931 49.0758 20.631 49.3378 20.631 49.6611C20.631 49.9844 20.8931 50.2465 21.2164 50.2465C21.5397 50.2465 21.8018 49.9844 21.8018 49.6611C21.8018 49.3378 21.5397 49.0758 21.2164 49.0758ZM21.2164 47.1001C20.8931 47.1001 20.631 47.3622 20.631 47.6855C20.631 48.0088 20.8931 48.2709 21.2164 48.2709C21.5397 48.2709 21.8018 48.0088 21.8018 47.6855C21.8018 47.3622 21.5397 47.1001 21.2164 47.1001ZM21.2164 45.1244C20.8931 45.1244 20.631 45.3865 20.631 45.7098C20.631 46.0331 20.8931 46.2952 21.2164 46.2952C21.5397 46.2952 21.8018 46.0331 21.8018 45.7098C21.8018 45.3865 21.5397 45.1244 21.2164 45.1244ZM19.2407 49.0758C18.9174 49.0758 18.6553 49.3378 18.6553 49.6611C18.6553 49.9844 18.9174 50.2465 19.2407 50.2465C19.564 50.2465 19.8261 49.9844 19.8261 49.6611C19.8261 49.3378 19.564 49.0758 19.2407 49.0758ZM19.2407 47.1001C18.9174 47.1001 18.6553 47.3622 18.6553 47.6855C18.6553 48.0088 18.9174 48.2709 19.2407 48.2709C19.564 48.2709 19.8261 48.0088 19.8261 47.6855C19.8261 47.3622 19.564 47.1001 19.2407 47.1001ZM19.2407 45.1244C18.9174 45.1244 18.6553 45.3865 18.6553 45.7098C18.6553 46.0331 18.9174 46.2952 19.2407 46.2952C19.564 46.2952 19.8261 46.0331 19.8261 45.7098C19.8261 45.3865 19.564 45.1244 19.2407 45.1244ZM17.2651 49.0758C16.9418 49.0758 16.6797 49.3378 16.6797 49.6611C16.6797 49.9844 16.9418 50.2465 17.2651 50.2465C17.5884 50.2465 17.8504 49.9844 17.8504 49.6611C17.8504 49.3378 17.5884 49.0758 17.2651 49.0758ZM17.2651 47.1001C16.9418 47.1001 16.6797 47.3622 16.6797 47.6855C16.6797 48.0088 16.9418 48.2709 17.2651 48.2709C17.5884 48.2709 17.8504 48.0088 17.8504 47.6855C17.8504 47.3622 17.5884 47.1001 17.2651 47.1001ZM17.2651 45.1244C16.9418 45.1244 16.6797 45.3865 16.6797 45.7098C16.6797 46.0331 16.9418 46.2952 17.2651 46.2952C17.5884 46.2952 17.8504 46.0331 17.8504 45.7098C17.8504 45.3865 17.5884 45.1244 17.2651 45.1244Z" fill="#E3E3E3"/>
<path d="M105.021 26.9725C105.021 26.3421 104.869 25.7647 104.564 25.2404C104.26 24.7161 103.844 24.3042 103.318 24.0046C102.797 23.6988 102.223 23.5458 101.595 23.5458C100.966 23.5458 100.389 23.6988 99.8622 24.0046C99.3419 24.3042 98.9294 24.7162 98.6248 25.2404C98.3202 25.7647 98.168 26.3421 98.168 26.9725C98.168 27.6029 98.3202 28.1803 98.6248 28.7046C98.9294 29.2289 99.3419 29.644 99.8622 29.9498C100.389 30.2494 100.966 30.3992 101.595 30.3992C102.223 30.3992 102.797 30.2494 103.318 29.9498C103.844 29.644 104.26 29.2289 104.564 28.7046C104.869 28.1803 105.021 27.6029 105.021 26.9725ZM103.051 28.4289H100.138V25.5162H103.051V28.4289Z" fill="#E3E3E3"/>
<path d="M102.005 15.5435C102.683 14.8657 102.683 13.7668 102.005 13.089C101.328 12.4112 100.229 12.4112 99.5508 13.089L97.0962 15.5435C96.4184 16.2213 96.4184 17.3203 97.0962 17.9981C97.7741 18.6759 98.873 18.6759 99.5508 17.9981L102.005 15.5435Z" fill="#E3E3E3"/>
<path d="M80.7178 21.3304V27.3271H86.7145V21.3304H80.7178ZM85.5151 24.3288C85.5151 25.3223 84.7097 26.1278 83.7161 26.1278C82.7226 26.1278 81.9171 25.3223 81.9171 24.3288C81.9171 23.3352 82.7226 22.5297 83.7161 22.5297C84.7097 22.5297 85.5151 23.3352 85.5151 24.3288Z" fill="#E3E3E3"/>
<path d="M78.1784 23.1753C77.4274 23.1753 76.8186 23.7841 76.8186 24.5351C76.8186 25.2862 77.4274 25.895 78.1784 25.895C78.9295 25.895 79.5383 25.2862 79.5383 24.5351C79.5383 23.7841 78.9295 23.1753 78.1784 23.1753ZM74.9487 26.405C74.1977 26.405 73.5889 27.0138 73.5889 27.7648C73.5889 28.5159 74.1977 29.1247 74.9487 29.1247C75.6998 29.1247 76.3086 28.5159 76.3086 27.7648C76.3086 27.0138 75.6998 26.405 74.9487 26.405Z" fill="#E3E3E3"/>
<path d="M67.1709 26.2198C66.4318 26.2198 65.8327 26.8189 65.8327 27.558C65.8327 28.2971 66.4318 28.8963 67.1709 28.8963C67.91 28.8963 68.5092 28.2971 68.5092 27.558C68.5092 26.8189 67.91 26.2198 67.1709 26.2198ZM63.9926 29.3981C63.2535 29.3981 62.6543 29.9973 62.6543 30.7364C62.6543 31.4755 63.2535 32.0746 63.9926 32.0746C64.7317 32.0746 65.3308 31.4755 65.3308 30.7364C65.3308 29.9973 64.7317 29.3981 63.9926 29.3981Z" fill="#E3E3E3"/>
<path d="M49.5367 44.5831C49.5367 43.9875 49.3928 43.442 49.1051 42.9466C48.8173 42.4512 48.4245 42.062 47.9269 41.779C47.4353 41.49 46.8927 41.3455 46.2991 41.3455C45.7056 41.3455 45.1599 41.49 44.6623 41.779C44.1707 42.062 43.781 42.4512 43.4932 42.9466C43.2054 43.442 43.0615 43.9875 43.0615 44.5831C43.0615 45.1787 43.2054 45.7242 43.4932 46.2196C43.781 46.715 44.1707 47.1071 44.6623 47.3961C45.1599 47.6792 45.7056 47.8207 46.2991 47.8207C46.8927 47.8207 47.4353 47.6792 47.9269 47.3961C48.4245 47.1071 48.8173 46.715 49.1051 46.2196C49.3928 45.7242 49.5367 45.1787 49.5367 44.5831ZM47.6751 45.9591H44.9231V43.2071H47.6751V45.9591Z" fill="#E3E3E3"/>
<path d="M30.7883 40.7233C30.1238 40.7233 29.5851 41.262 29.5851 41.9265C29.5851 42.591 30.1238 43.1297 30.7883 43.1297C31.4528 43.1297 31.9915 42.591 31.9915 41.9265C31.9915 41.262 31.4528 40.7233 30.7883 40.7233ZM27.9307 43.5809C27.2662 43.5809 26.7275 44.1196 26.7275 44.7841C26.7275 45.4486 27.2662 45.9873 27.9307 45.9873C28.5952 45.9873 29.1339 45.4486 29.1339 44.7841C29.1339 44.1196 28.5952 43.5809 27.9307 43.5809Z" fill="#E3E3E3"/>
<path d="M110.695 30.6985C111.403 29.9909 111.403 28.8438 110.695 28.1362C109.988 27.4287 108.84 27.4287 108.133 28.1362L105.571 30.6985C104.863 31.406 104.863 32.5532 105.571 33.2607C106.278 33.9683 107.425 33.9683 108.133 33.2607L110.695 30.6985Z" fill="#E3E3E3"/>
<path d="M89.5703 23.6029V29.6705H95.6379V23.6029H89.5703ZM94.4244 26.6367C94.4244 27.642 93.6094 28.457 92.6041 28.457C91.5988 28.457 90.7838 27.642 90.7838 26.6367C90.7838 25.6313 91.5988 24.8164 92.6041 24.8164C93.6094 24.8164 94.4244 25.6313 94.4244 26.6367Z" fill="#E3E3E3"/>
<path d="M72.5154 32.8971C71.7464 32.8971 71.1231 33.5205 71.1231 34.2894C71.1231 35.0584 71.7464 35.6817 72.5154 35.6817C73.2843 35.6817 73.9077 35.0584 73.9077 34.2894C73.9077 33.5205 73.2843 32.8971 72.5154 32.8971ZM69.2087 36.2038C68.4398 36.2038 67.8164 36.8272 67.8164 37.5961C67.8164 38.3651 68.4398 38.9884 69.2087 38.9884C69.9776 38.9884 70.601 38.3651 70.601 37.5961C70.601 36.8272 69.9776 36.2038 69.2087 36.2038Z" fill="#E3E3E3"/>
<path d="M66.282 40.8439C65.9005 40.8439 65.5912 41.1532 65.5912 41.5347C65.5912 41.9161 65.9005 42.2254 66.282 42.2254C66.6634 42.2254 66.9727 41.9161 66.9727 41.5347C66.9727 41.1532 66.6634 40.8439 66.282 40.8439ZM66.282 38.5127C65.9005 38.5127 65.5912 38.8219 65.5912 39.2034C65.5912 39.5849 65.9005 39.8941 66.282 39.8941C66.6634 39.8941 66.9727 39.5849 66.9727 39.2034C66.9727 38.8219 66.6634 38.5127 66.282 38.5127ZM66.282 36.1814C65.9005 36.1814 65.5912 36.4907 65.5912 36.8722C65.5912 37.2536 65.9005 37.5629 66.282 37.5629C66.6634 37.5629 66.9727 37.2536 66.9727 36.8722C66.9727 36.4907 66.6634 36.1814 66.282 36.1814ZM63.9507 40.8439C63.5692 40.8439 63.26 41.1532 63.26 41.5347C63.26 41.9161 63.5692 42.2254 63.9507 42.2254C64.3322 42.2254 64.6414 41.9161 64.6414 41.5347C64.6414 41.1532 64.3322 40.8439 63.9507 40.8439ZM63.9507 38.5127C63.5692 38.5127 63.26 38.8219 63.26 39.2034C63.26 39.5849 63.5692 39.8941 63.9507 39.8941C64.3322 39.8941 64.6414 39.5849 64.6414 39.2034C64.6414 38.8219 64.3322 38.5127 63.9507 38.5127ZM63.9507 36.1814C63.5692 36.1814 63.26 36.4907 63.26 36.8722C63.26 37.2536 63.5692 37.5629 63.9507 37.5629C64.3322 37.5629 64.6414 37.2536 64.6414 36.8722C64.6414 36.4907 64.3322 36.1814 63.9507 36.1814ZM61.6195 40.8439C61.238 40.8439 60.9287 41.1532 60.9287 41.5347C60.9287 41.9161 61.238 42.2254 61.6195 42.2254C62.0009 42.2254 62.3102 41.9161 62.3102 41.5347C62.3102 41.1532 62.0009 40.8439 61.6195 40.8439ZM61.6195 38.5127C61.238 38.5127 60.9287 38.8219 60.9287 39.2034C60.9287 39.5849 61.238 39.8941 61.6195 39.8941C62.0009 39.8941 62.3102 39.5849 62.3102 39.2034C62.3102 38.8219 62.0009 38.5127 61.6195 38.5127ZM61.6195 36.1814C61.238 36.1814 60.9287 36.4907 60.9287 36.8722C60.9287 37.2536 61.238 37.5629 61.6195 37.5629C62.0009 37.5629 62.3102 37.2536 62.3102 36.8722C62.3102 36.4907 62.0009 36.1814 61.6195 36.1814Z" fill="#E3E3E3"/>
<path d="M54.1064 47.7942C54.7734 47.1272 54.7734 46.0458 54.1064 45.3788C53.4394 44.7118 52.358 44.7118 51.691 45.3788L49.2756 47.7942C48.6086 48.4612 48.6086 49.5426 49.2756 50.2096C49.9426 50.8765 51.024 50.8765 51.691 50.2096L54.1064 47.7942Z" fill="#E3E3E3"/>
<path d="M44.2744 49.5432V55.2563H49.9875V49.5432H44.2744ZM48.8449 52.3997C48.8449 53.3463 48.0775 54.1137 47.1309 54.1137C46.1844 54.1137 45.417 53.3463 45.417 52.3997C45.417 51.4532 46.1844 50.6858 47.1309 50.6858C48.0775 50.6858 48.8449 51.4532 48.8449 52.3997Z" fill="#E3E3E3"/>
<path d="M41.9672 52.7071C41.614 52.7071 41.3278 52.9933 41.3278 53.3465C41.3278 53.6996 41.614 53.9859 41.9672 53.9859C42.3203 53.9859 42.6066 53.6996 42.6066 53.3465C42.6066 52.9933 42.3203 52.7071 41.9672 52.7071ZM41.9672 50.549C41.614 50.549 41.3278 50.8353 41.3278 51.1884C41.3278 51.5416 41.614 51.8279 41.9672 51.8279C42.3203 51.8279 42.6066 51.5416 42.6066 51.1884C42.6066 50.8353 42.3203 50.549 41.9672 50.549ZM41.9672 48.391C41.614 48.391 41.3278 48.6773 41.3278 49.0304C41.3278 49.3836 41.614 49.6698 41.9672 49.6698C42.3203 49.6698 42.6066 49.3836 42.6066 49.0304C42.6066 48.6773 42.3203 48.391 41.9672 48.391ZM39.8092 52.7071C39.456 52.7071 39.1697 52.9933 39.1697 53.3465C39.1697 53.6996 39.456 53.9859 39.8092 53.9859C40.1623 53.9859 40.4486 53.6996 40.4486 53.3465C40.4486 52.9933 40.1623 52.7071 39.8092 52.7071ZM39.8092 50.549C39.456 50.549 39.1697 50.8353 39.1697 51.1884C39.1697 51.5416 39.456 51.8279 39.8092 51.8279C40.1623 51.8279 40.4486 51.5416 40.4486 51.1884C40.4486 50.8353 40.1623 50.549 39.8092 50.549ZM39.8092 48.391C39.456 48.391 39.1697 48.6773 39.1697 49.0304C39.1697 49.3836 39.456 49.6698 39.8092 49.6698C40.1623 49.6698 40.4486 49.3836 40.4486 49.0304C40.4486 48.6773 40.1623 48.391 39.8092 48.391ZM37.6511 52.7071C37.298 52.7071 37.0117 52.9933 37.0117 53.3465C37.0117 53.6996 37.298 53.9859 37.6511 53.9859C38.0043 53.9859 38.2905 53.6996 38.2905 53.3465C38.2905 52.9933 38.0043 52.7071 37.6511 52.7071ZM37.6511 50.549C37.298 50.549 37.0117 50.8353 37.0117 51.1884C37.0117 51.5416 37.298 51.8279 37.6511 51.8279C38.0043 51.8279 38.2905 51.5416 38.2905 51.1884C38.2905 50.8353 38.0043 50.549 37.6511 50.549ZM37.6511 48.391C37.298 48.391 37.0117 48.6773 37.0117 49.0304C37.0117 49.3836 37.298 49.6698 37.6511 49.6698C38.0043 49.6698 38.2905 49.3836 38.2905 49.0304C38.2905 48.6773 38.0043 48.391 37.6511 48.391Z" fill="#E3E3E3"/>
<path d="M124.959 30.0089C124.521 30.0089 124.166 30.3637 124.166 30.8014C124.166 31.2391 124.521 31.5939 124.959 31.5939C125.397 31.5939 125.752 31.2391 125.752 30.8014C125.752 30.3637 125.397 30.0089 124.959 30.0089ZM123.077 31.8912C122.639 31.8912 122.284 32.246 122.284 32.6837C122.284 33.1214 122.639 33.4762 123.077 33.4762C123.514 33.4762 123.869 33.1214 123.869 32.6837C123.869 32.246 123.514 31.8912 123.077 31.8912Z" fill="#E3E3E3"/>
<path d="M118.973 37.9412L122.589 34.3254L118.973 30.7096L115.357 34.3254L118.973 37.9412Z" fill="#E3E3E3"/>
<path d="M92.0465 43.9807L95.6623 40.3649L92.0465 36.7491L88.4307 40.3649L92.0465 43.9807Z" fill="#E3E3E3"/>
<path d="M150.977 71.7909L154.593 68.1751L150.977 64.5593L147.361 68.1751L150.977 71.7909Z" fill="#E3E3E3"/>
<path d="M124.518 54.6268L129.815 49.3296L124.518 44.0324L119.221 49.3296L124.518 54.6268Z" fill="#E3E3E3"/>
<path d="M105.809 40.7078L109.425 37.092L105.809 33.4762L102.193 37.092L105.809 40.7078Z" fill="#E3E3E3"/>
<path d="M74.0992 42.0999L77.715 38.4841L74.0992 34.8683L70.4834 38.4841L74.0992 42.0999Z" fill="#E3E3E3"/>
<path d="M58.2769 41.6632L61.8927 38.0474L58.2769 34.4316L54.6611 38.0474L58.2769 41.6632Z" fill="#E3E3E3"/>
<path d="M40.5142 37.8274L44.13 34.2116L40.5142 30.5958L36.8984 34.2116L40.5142 37.8274Z" fill="#E3E3E3"/>
<path d="M19.3717 28.7061L22.9875 25.0903L19.3717 21.4745L15.7559 25.0903L19.3717 28.7061Z" fill="#E3E3E3"/>
<path d="M16.2213 12.2365L19.8371 8.62074L16.2213 5.00494L12.6055 8.62074L16.2213 12.2365Z" fill="#E3E3E3"/>
<path d="M121.914 48.1956C121.511 48.1956 121.183 48.523 121.183 48.9268C121.183 49.3307 121.511 49.6581 121.914 49.6581C122.318 49.6581 122.646 49.3307 122.646 48.9268C122.646 48.523 122.318 48.1956 121.914 48.1956ZM121.914 45.7276C121.511 45.7276 121.183 46.055 121.183 46.4588C121.183 46.8627 121.511 47.1901 121.914 47.1901C122.318 47.1901 122.646 46.8627 122.646 46.4588C122.646 46.055 122.318 45.7276 121.914 45.7276ZM121.914 43.2595C121.511 43.2595 121.183 43.5869 121.183 43.9908C121.183 44.3947 121.511 44.7221 121.914 44.7221C122.318 44.7221 122.646 44.3947 122.646 43.9908C122.646 43.5869 122.318 43.2595 121.914 43.2595ZM119.446 48.1956C119.042 48.1956 118.715 48.523 118.715 48.9268C118.715 49.3307 119.042 49.6581 119.446 49.6581C119.85 49.6581 120.178 49.3307 120.178 48.9268C120.178 48.523 119.85 48.1956 119.446 48.1956ZM119.446 45.7276C119.042 45.7276 118.715 46.055 118.715 46.4588C118.715 46.8627 119.042 47.1901 119.446 47.1901C119.85 47.1901 120.178 46.8627 120.178 46.4588C120.178 46.055 119.85 45.7276 119.446 45.7276ZM119.446 43.2595C119.042 43.2595 118.715 43.5869 118.715 43.9908C118.715 44.3947 119.042 44.7221 119.446 44.7221C119.85 44.7221 120.178 44.3947 120.178 43.9908C120.178 43.5869 119.85 43.2595 119.446 43.2595ZM116.978 48.1956C116.574 48.1956 116.247 48.523 116.247 48.9268C116.247 49.3307 116.574 49.6581 116.978 49.6581C117.382 49.6581 117.71 49.3307 117.71 48.9268C117.71 48.523 117.382 48.1956 116.978 48.1956ZM116.978 45.7276C116.574 45.7276 116.247 46.055 116.247 46.4588C116.247 46.8627 116.574 47.1901 116.978 47.1901C117.382 47.1901 117.71 46.8627 117.71 46.4588C117.71 46.055 117.382 45.7276 116.978 45.7276ZM116.978 43.2595C116.574 43.2595 116.247 43.5869 116.247 43.9908C116.247 44.3947 116.574 44.7221 116.978 44.7221C117.382 44.7221 117.71 44.3947 117.71 43.9908C117.71 43.5869 117.382 43.2595 116.978 43.2595Z" fill="#E3E3E3"/>
<path d="M101.742 32.8783V39.2296H108.093V32.8783H101.742ZM106.823 36.0539C106.823 37.1062 105.97 37.9593 104.918 37.9593C103.866 37.9593 103.012 37.1062 103.012 36.0539C103.012 35.0016 103.866 34.1485 104.918 34.1485C105.97 34.1485 106.823 35.0016 106.823 36.0539Z" fill="#E3E3E3"/>
<path d="M97.9418 31.4874C97.541 31.4874 97.216 31.8124 97.216 32.2133C97.216 32.6142 97.541 32.9392 97.9418 32.9392C98.3427 32.9392 98.6677 32.6142 98.6677 32.2133C98.6677 31.8124 98.3427 31.4874 97.9418 31.4874ZM97.9418 29.0377C97.541 29.0377 97.216 29.3626 97.216 29.7635C97.216 30.1644 97.541 30.4894 97.9418 30.4894C98.3427 30.4894 98.6677 30.1644 98.6677 29.7635C98.6677 29.3626 98.3427 29.0377 97.9418 29.0377ZM97.9418 26.5879C97.541 26.5879 97.216 26.9128 97.216 27.3137C97.216 27.7146 97.541 28.0396 97.9418 28.0396C98.3427 28.0396 98.6677 27.7146 98.6677 27.3137C98.6677 26.9128 98.3427 26.5879 97.9418 26.5879ZM95.4921 31.4874C95.0912 31.4874 94.7662 31.8124 94.7662 32.2133C94.7662 32.6142 95.0912 32.9392 95.4921 32.9392C95.8929 32.9392 96.2179 32.6142 96.2179 32.2133C96.2179 31.8124 95.8929 31.4874 95.4921 31.4874ZM95.4921 29.0377C95.0912 29.0377 94.7662 29.3626 94.7662 29.7635C94.7662 30.1644 95.0912 30.4894 95.4921 30.4894C95.8929 30.4894 96.2179 30.1644 96.2179 29.7635C96.2179 29.3626 95.8929 29.0377 95.4921 29.0377ZM95.4921 26.5879C95.0912 26.5879 94.7662 26.9128 94.7662 27.3137C94.7662 27.7146 95.0912 28.0396 95.4921 28.0396C95.8929 28.0396 96.2179 27.7146 96.2179 27.3137C96.2179 26.9128 95.8929 26.5879 95.4921 26.5879ZM93.0423 31.4874C92.6414 31.4874 92.3164 31.8124 92.3164 32.2133C92.3164 32.6142 92.6414 32.9392 93.0423 32.9392C93.4432 32.9392 93.7681 32.6142 93.7681 32.2133C93.7681 31.8124 93.4432 31.4874 93.0423 31.4874ZM93.0423 29.0377C92.6414 29.0377 92.3164 29.3626 92.3164 29.7635C92.3164 30.1644 92.6414 30.4894 93.0423 30.4894C93.4432 30.4894 93.7681 30.1644 93.7681 29.7635C93.7681 29.3626 93.4432 29.0377 93.0423 29.0377ZM93.0423 26.5879C92.6414 26.5879 92.3164 26.9128 92.3164 27.3137C92.3164 27.7146 92.6414 28.0396 93.0423 28.0396C93.4432 28.0396 93.7681 27.7146 93.7681 27.3137C93.7681 26.9128 93.4432 26.5879 93.0423 26.5879Z" fill="#E3E3E3"/>
<path d="M99.466 34.9067C99.466 34.2266 99.3017 33.6037 98.9731 33.0381C98.6445 32.4725 98.196 32.0281 97.6278 31.7049C97.0665 31.3749 96.4469 31.2099 95.7691 31.2099C95.0914 31.2099 94.4683 31.3749 93.9001 31.7049C93.3388 32.0281 92.8938 32.4725 92.5651 33.0381C92.2365 33.6037 92.0723 34.2266 92.0723 34.9067C92.0723 35.5869 92.2365 36.2097 92.5651 36.7754C92.8938 37.341 93.3388 37.7888 93.9001 38.1188C94.4683 38.442 95.0914 38.6036 95.7691 38.6036C96.4469 38.6036 97.0665 38.442 97.6278 38.1188C98.196 37.7888 98.6445 37.341 98.9731 36.7754C99.3017 36.2097 99.466 35.5869 99.466 34.9067ZM97.3403 36.4779H94.198V33.3356H97.3403V36.4779Z" fill="#E3E3E3"/>
<path d="M80.1641 42.3737C79.7647 42.3737 79.4409 42.6974 79.4409 43.0968C79.4409 43.4962 79.7647 43.82 80.1641 43.82C80.5635 43.82 80.8872 43.4962 80.8872 43.0968C80.8872 42.6974 80.5635 42.3737 80.1641 42.3737ZM80.1641 39.933C79.7647 39.933 79.4409 40.2568 79.4409 40.6562C79.4409 41.0556 79.7647 41.3793 80.1641 41.3793C80.5635 41.3793 80.8872 41.0556 80.8872 40.6562C80.8872 40.2568 80.5635 39.933 80.1641 39.933ZM80.1641 37.4923C79.7647 37.4923 79.4409 37.8161 79.4409 38.2155C79.4409 38.6149 79.7647 38.9387 80.1641 38.9387C80.5635 38.9387 80.8872 38.6149 80.8872 38.2155C80.8872 37.8161 80.5635 37.4923 80.1641 37.4923ZM77.7234 42.3737C77.324 42.3737 77.0002 42.6974 77.0002 43.0968C77.0002 43.4962 77.324 43.82 77.7234 43.82C78.1228 43.82 78.4466 43.4962 78.4466 43.0968C78.4466 42.6974 78.1228 42.3737 77.7234 42.3737ZM77.7234 39.933C77.324 39.933 77.0002 40.2568 77.0002 40.6562C77.0002 41.0556 77.324 41.3793 77.7234 41.3793C78.1228 41.3793 78.4466 41.0556 78.4466 40.6562C78.4466 40.2568 78.1228 39.933 77.7234 39.933ZM77.7234 37.4923C77.324 37.4923 77.0002 37.8161 77.0002 38.2155C77.0002 38.6149 77.324 38.9387 77.7234 38.9387C78.1228 38.9387 78.4466 38.6149 78.4466 38.2155C78.4466 37.8161 78.1228 37.4923 77.7234 37.4923ZM75.2827 42.3737C74.8833 42.3737 74.5596 42.6974 74.5596 43.0968C74.5596 43.4962 74.8833 43.82 75.2827 43.82C75.6821 43.82 76.0059 43.4962 76.0059 43.0968C76.0059 42.6974 75.6821 42.3737 75.2827 42.3737ZM75.2827 39.933C74.8833 39.933 74.5596 40.2568 74.5596 40.6562C74.5596 41.0556 74.8833 41.3793 75.2827 41.3793C75.6821 41.3793 76.0059 41.0556 76.0059 40.6562C76.0059 40.2568 75.6821 39.933 75.2827 39.933ZM75.2827 37.4923C74.8833 37.4923 74.5596 37.8161 74.5596 38.2155C74.5596 38.6149 74.8833 38.9387 75.2827 38.9387C75.6821 38.9387 76.0059 38.6149 76.0059 38.2155C76.0059 37.8161 75.6821 37.4923 75.2827 37.4923Z" fill="#E3E3E3"/>
<path d="M131.814 37.8687C131.814 37.2209 131.658 36.6276 131.345 36.0888C131.032 35.5501 130.604 35.1268 130.063 34.8189C129.528 34.5046 128.938 34.3475 128.293 34.3475C127.647 34.3475 127.054 34.5046 126.513 34.8189C125.978 35.1268 125.554 35.5501 125.241 36.0888C124.928 36.6276 124.771 37.2209 124.771 37.8687C124.771 38.5165 124.928 39.1098 125.241 39.6486C125.554 40.1874 125.978 40.6139 126.513 40.9282C127.054 41.236 127.647 41.39 128.293 41.39C128.938 41.39 129.528 41.236 130.063 40.9282C130.604 40.6139 131.032 40.1874 131.345 39.6486C131.658 39.1098 131.814 38.5165 131.814 37.8687ZM129.789 39.3653H126.796V36.3722H129.789V39.3653Z" fill="#E3E3E3"/>
<path d="M106.043 42.9751C106.043 42.3273 105.886 41.734 105.573 41.1952C105.26 40.6565 104.833 40.2332 104.292 39.9253C103.757 39.611 103.167 39.4539 102.521 39.4539C101.876 39.4539 101.282 39.611 100.741 39.9253C100.206 40.2332 99.7825 40.6565 99.4695 41.1952C99.1565 41.734 99 42.3273 99 42.9751C99 43.6229 99.1565 44.2162 99.4695 44.755C99.7825 45.2937 100.206 45.7203 100.741 46.0345C101.282 46.3424 101.876 46.4964 102.521 46.4964C103.167 46.4964 103.757 46.3424 104.292 46.0345C104.833 45.7203 105.26 45.2938 105.573 44.755C105.886 44.2162 106.043 43.6229 106.043 42.9751ZM104.018 44.4716H101.025V41.4786H104.018V44.4716Z" fill="#E3E3E3"/>
<path d="M78.2681 30.7183C78.2681 30.0705 78.1116 29.4772 77.7986 28.9384C77.4856 28.3997 77.0585 27.9764 76.5173 27.6685C75.9826 27.3542 75.3924 27.197 74.7468 27.197C74.1013 27.197 73.5078 27.3542 72.9666 27.6685C72.4319 27.9764 72.0081 28.3997 71.6951 28.9384C71.3821 29.4772 71.2256 30.0705 71.2256 30.7183C71.2256 31.3661 71.3821 31.9594 71.6951 32.4982C72.0081 33.0369 72.4319 33.4635 72.9666 33.7777C73.5078 34.0856 74.1013 34.2396 74.7468 34.2396C75.3924 34.2396 75.9826 34.0856 76.5173 33.7777C77.0585 33.4634 77.4856 33.0369 77.7986 32.4982C78.1116 31.9594 78.2681 31.3661 78.2681 30.7183ZM76.2434 32.2148H73.2503V29.2218H76.2434V32.2148Z" fill="#E3E3E3"/>
<path d="M45.9693 20.4512C45.9693 19.8034 45.8128 19.2101 45.4998 18.6713C45.1868 18.1325 44.7597 17.7093 44.2184 17.4014C43.6837 17.0871 43.0936 16.9299 42.448 16.9299C41.8025 16.9299 41.209 17.0871 40.6678 17.4014C40.1331 17.7093 39.7092 18.1326 39.3962 18.6713C39.0832 19.2101 38.9268 19.8034 38.9268 20.4512C38.9268 21.099 39.0832 21.6923 39.3962 22.2311C39.7092 22.7698 40.1331 23.1963 40.6678 23.5106C41.209 23.8185 41.8025 23.9724 42.448 23.9724C43.0936 23.9724 43.6837 23.8185 44.2184 23.5106C44.7597 23.1963 45.1868 22.7698 45.4998 22.2311C45.8128 21.6923 45.9693 21.099 45.9693 20.4512ZM43.9445 21.9477H40.9515V18.9547H43.9445V21.9477Z" fill="#E3E3E3"/>
<path d="M25.7554 8.24672C25.7554 7.59892 25.5989 7.00561 25.2859 6.46683C24.9729 5.92808 24.5458 5.50479 24.0046 5.19692C23.4699 4.88263 22.8797 4.72547 22.2341 4.72547C21.5886 4.72547 20.9951 4.88263 20.4539 5.19692C19.9192 5.50479 19.4954 5.92808 19.1824 6.46683C18.8694 7.00561 18.7129 7.59892 18.7129 8.24672C18.7129 8.89453 18.8694 9.48783 19.1824 10.0266C19.4954 10.5654 19.9192 10.9919 20.4539 11.3062C20.9951 11.614 21.5886 11.768 22.2341 11.768C22.8797 11.768 23.4699 11.614 24.0046 11.3062C24.5458 10.9919 24.9729 10.5654 25.2859 10.0266C25.5989 9.48783 25.7554 8.89453 25.7554 8.24672ZM23.7307 9.74325H20.7376V6.75019L23.7307 6.75019V9.74325Z" fill="#E3E3E3"/>
<path d="M114.735 44.8706C115.491 44.1144 115.491 42.8884 114.735 42.1321C113.978 41.3759 112.752 41.3759 111.996 42.1321L109.258 44.8706C108.501 45.6268 108.501 46.8529 109.258 47.6091C110.014 48.3653 111.24 48.3653 111.996 47.6091L114.735 44.8706Z" fill="#E3E3E3"/>
<path d="M106.023 50.4695C106.023 49.777 105.856 49.1427 105.521 48.5667C105.186 47.9908 104.73 47.5383 104.151 47.2091C103.58 46.8731 102.949 46.7051 102.259 46.7051C101.568 46.7051 100.934 46.8731 100.355 47.2091C99.7838 47.5383 99.3306 47.9908 98.996 48.5667C98.6614 49.1427 98.4941 49.777 98.4941 50.4695C98.4941 51.1621 98.6614 51.7963 98.996 52.3723C99.3306 52.9483 99.7838 53.4042 100.355 53.7402C100.934 54.0693 101.568 54.2339 102.259 54.2339C102.949 54.2339 103.58 54.0693 104.151 53.7402C104.73 53.4042 105.186 52.9483 105.521 52.3723C105.856 51.7963 106.023 51.1621 106.023 50.4695ZM103.858 52.0694H100.659V48.8697H103.858V52.0694Z" fill="#E3E3E3"/>
<path d="M94.6535 45.6364C93.816 45.6364 93.137 46.3154 93.137 47.153C93.137 47.9906 93.816 48.6696 94.6535 48.6696C95.4911 48.6696 96.1701 47.9906 96.1701 47.153C96.1701 46.3154 95.4911 45.6364 94.6535 45.6364ZM91.0517 49.2383C90.2141 49.2383 89.5352 49.9173 89.5352 50.7548C89.5352 51.5924 90.2141 52.2714 91.0517 52.2714C91.8893 52.2714 92.5683 51.5924 92.5683 50.7548C92.5683 49.9173 91.8893 49.2383 91.0517 49.2383Z" fill="#E3E3E3"/>
<path d="M79.7402 45.0031V51.6144H86.3515V45.0031H79.7402ZM85.0293 48.3088C85.0293 49.4042 84.1413 50.2922 83.0459 50.2922C81.9505 50.2922 81.0625 49.4042 81.0625 48.3088C81.0625 47.2134 81.9505 46.3254 83.0459 46.3254C84.1413 46.3254 85.0293 47.2134 85.0293 48.3088Z" fill="#E3E3E3"/>
<path d="M75.8856 49.9207C76.6337 49.1726 76.6337 47.9597 75.8856 47.2116C75.1375 46.4635 73.9246 46.4635 73.1765 47.2116L70.4673 49.9207C69.7192 50.6688 69.7192 51.8817 70.4673 52.6298C71.2154 53.3779 72.4284 53.3779 73.1765 52.6298L75.8856 49.9207Z" fill="#E3E3E3"/>
<path d="M143.227 44.6173C142.441 44.6173 141.803 45.2552 141.803 46.042C141.803 46.8289 142.441 47.4667 143.227 47.4667C144.014 47.4667 144.652 46.8289 144.652 46.042C144.652 45.2552 144.014 44.6173 143.227 44.6173ZM139.844 48.001C139.057 48.001 138.419 48.6389 138.419 49.4257C138.419 50.2126 139.057 50.8504 139.844 50.8504C140.631 50.8504 141.268 50.2126 141.268 49.4257C141.268 48.6389 140.631 48.001 139.844 48.001Z" fill="#E3E3E3"/>
<path d="M131.232 43.3512V49.8443H137.726V43.3512H131.232ZM136.427 46.5978C136.427 47.6736 135.555 48.5457 134.479 48.5457C133.403 48.5457 132.531 47.6736 132.531 46.5978C132.531 45.522 133.403 44.6498 134.479 44.6498C135.555 44.6498 136.427 45.522 136.427 46.5978Z" fill="#E3E3E3"/>
<path d="M143.699 54.916C144.423 54.1922 144.423 53.0188 143.699 52.295C142.975 51.5712 141.802 51.5712 141.078 52.295L138.457 54.916C137.733 55.6398 137.733 56.8132 138.457 57.537C139.181 58.2608 140.354 58.2608 141.078 57.537L143.699 54.916Z" fill="#E3E3E3"/>
<path d="M131.562 56.2828C132.321 55.5239 132.321 54.2934 131.562 53.5345C130.803 52.7756 129.572 52.7756 128.814 53.5345L126.065 56.2828C125.306 57.0417 125.306 58.2722 126.065 59.0311C126.824 59.79 128.055 59.79 128.814 59.0311L131.562 56.2828Z" fill="#E3E3E3"/>
<path d="M123.681 58.3789C122.897 58.3789 122.261 59.0143 122.261 59.7982C122.261 60.5821 122.897 61.2175 123.681 61.2175C124.465 61.2175 125.1 60.5821 125.1 59.7982C125.1 59.0143 124.465 58.3789 123.681 58.3789ZM120.31 61.7497C119.526 61.7497 118.891 62.3852 118.891 63.169C118.891 63.9529 119.526 64.5884 120.31 64.5884C121.094 64.5884 121.729 63.9529 121.729 63.169C121.729 62.3852 121.094 61.7497 120.31 61.7497Z" fill="#E3E3E3"/>
<path d="M160.761 72.5048C159.977 72.5048 159.342 73.1403 159.342 73.9241C159.342 74.708 159.977 75.3434 160.761 75.3434C161.545 75.3434 162.18 74.708 162.18 73.9241C162.18 73.1403 161.545 72.5048 160.761 72.5048ZM157.39 75.8757C156.606 75.8757 155.971 76.5111 155.971 77.295C155.971 78.0789 156.606 78.7143 157.39 78.7143C158.174 78.7143 158.809 78.0789 158.809 77.295C158.809 76.5111 158.174 75.8757 157.39 75.8757Z" fill="#E3E3E3"/>
<path d="M144.887 57.5628V63.985H151.309V57.5628H144.887ZM150.024 60.7739C150.024 61.838 149.162 62.7006 148.098 62.7006C147.034 62.7006 146.171 61.838 146.171 60.7739C146.171 59.7099 147.034 58.8473 148.098 58.8473C149.162 58.8473 150.024 59.7099 150.024 60.7739Z" fill="#E3E3E3"/>
<path d="M110.082 34.292V40.7142H116.504V34.292H110.082ZM115.22 37.5031C115.22 38.5672 114.357 39.4298 113.293 39.4298C112.229 39.4298 111.366 38.5672 111.366 37.5031C111.366 36.439 112.229 35.5764 113.293 35.5764C114.357 35.5764 115.22 36.439 115.22 37.5031Z" fill="#E3E3E3"/>
<path d="M82.2598 31.075V37.4973H88.682V31.075H82.2598ZM87.3975 34.2862C87.3975 35.3502 86.5349 36.2128 85.4709 36.2128C84.4068 36.2128 83.5442 35.3502 83.5442 34.2862C83.5442 33.2221 84.4068 32.3595 85.4709 32.3595C86.5349 32.3595 87.3975 33.2221 87.3975 34.2862Z" fill="#E3E3E3"/>
<path d="M62.3213 29.9913V36.4135H68.7435V29.9913H62.3213ZM67.4591 33.2024C67.4591 34.2665 66.5965 35.1291 65.5324 35.1291C64.4683 35.1291 63.6057 34.2665 63.6057 33.2024C63.6057 32.1383 64.4683 31.2757 65.5324 31.2757C66.5965 31.2757 67.4591 32.1383 67.4591 33.2024Z" fill="#E3E3E3"/>
<path d="M46.2617 36.2539V42.6761H52.6839V36.2539H46.2617ZM51.3995 39.465C51.3995 40.529 50.5369 41.3916 49.4728 41.3916C48.4088 41.3916 47.5462 40.529 47.5462 39.465C47.5462 38.4009 48.4088 37.5383 49.4728 37.5383C50.5369 37.5383 51.3995 38.4009 51.3995 39.465Z" fill="#E3E3E3"/>
<path d="M32.1396 21.5689V27.9912H38.5619V21.5689H32.1396ZM37.2774 24.7801C37.2774 25.8441 36.4148 26.7067 35.3508 26.7067C34.2867 26.7067 33.4241 25.8441 33.4241 24.7801C33.4241 23.716 34.2867 22.8534 35.3508 22.8534C36.4148 22.8534 37.2774 23.716 37.2774 24.7801Z" fill="#E3E3E3"/>
<path d="M27.1074 5.05018V11.4724L33.5296 11.4724V5.05018L27.1074 5.05018ZM32.2452 8.26129C32.2452 9.32536 31.3826 10.188 30.3185 10.188C29.2545 10.188 28.3919 9.32536 28.3919 8.26129C28.3919 7.19722 29.2545 6.33463 30.3185 6.33463C31.3826 6.33463 32.2452 7.19722 32.2452 8.26129Z" fill="#E3E3E3"/>
<path d="M143.065 66.1568C142.653 66.1568 142.318 66.4915 142.318 66.9043C142.318 67.3171 142.653 67.6518 143.065 67.6518C143.478 67.6518 143.813 67.3171 143.813 66.9043C143.813 66.4915 143.478 66.1568 143.065 66.1568ZM143.065 63.6341C142.653 63.6341 142.318 63.9688 142.318 64.3816C142.318 64.7944 142.653 65.1291 143.065 65.1291C143.478 65.1291 143.813 64.7944 143.813 64.3816C143.813 63.9688 143.478 63.6341 143.065 63.6341ZM143.065 61.1114C142.653 61.1114 142.318 61.446 142.318 61.8589C142.318 62.2717 142.653 62.6063 143.065 62.6063C143.478 62.6063 143.813 62.2717 143.813 61.8589C143.813 61.446 143.478 61.1114 143.065 61.1114ZM140.543 66.1568C140.13 66.1568 139.795 66.4915 139.795 66.9043C139.795 67.3171 140.13 67.6518 140.543 67.6518C140.955 67.6518 141.29 67.3171 141.29 66.9043C141.29 66.4915 140.955 66.1568 140.543 66.1568ZM140.543 63.6341C140.13 63.6341 139.795 63.9688 139.795 64.3816C139.795 64.7944 140.13 65.1291 140.543 65.1291C140.955 65.1291 141.29 64.7944 141.29 64.3816C141.29 63.9688 140.955 63.6341 140.543 63.6341ZM140.543 61.1114C140.13 61.1114 139.795 61.446 139.795 61.8589C139.795 62.2717 140.13 62.6063 140.543 62.6063C140.955 62.6063 141.29 62.2717 141.29 61.8589C141.29 61.446 140.955 61.1114 140.543 61.1114ZM138.02 66.1568C137.607 66.1568 137.272 66.4915 137.272 66.9043C137.272 67.3171 137.607 67.6518 138.02 67.6518C138.433 67.6518 138.767 67.3171 138.767 66.9043C138.767 66.4915 138.433 66.1568 138.02 66.1568ZM138.02 63.6341C137.607 63.6341 137.272 63.9688 137.272 64.3816C137.272 64.7944 137.607 65.1291 138.02 65.1291C138.433 65.1291 138.767 64.7944 138.767 64.3816C138.767 63.9688 138.433 63.6341 138.02 63.6341ZM138.02 61.1114C137.607 61.1114 137.272 61.446 137.272 61.8589C137.272 62.2717 137.607 62.6063 138.02 62.6063C138.433 62.6063 138.767 62.2717 138.767 61.8589C138.767 61.446 138.433 61.1114 138.02 61.1114Z" fill="#E3E3E3"/>
<path d="M135.278 64.6386C134.865 64.6386 134.531 64.9732 134.531 65.3861C134.531 65.7989 134.865 66.1335 135.278 66.1335C135.691 66.1335 136.026 65.7989 136.026 65.3861C136.026 64.9732 135.691 64.6386 135.278 64.6386ZM135.278 62.1159C134.865 62.1159 134.531 62.4505 134.531 62.8633C134.531 63.2762 134.865 63.6108 135.278 63.6108C135.691 63.6108 136.026 63.2762 136.026 62.8633C136.026 62.4505 135.691 62.1159 135.278 62.1159ZM135.278 59.5931C134.865 59.5931 134.531 59.9278 134.531 60.3406C134.531 60.7534 134.865 61.0881 135.278 61.0881C135.691 61.0881 136.026 60.7534 136.026 60.3406C136.026 59.9278 135.691 59.5931 135.278 59.5931ZM132.756 64.6386C132.343 64.6386 132.008 64.9732 132.008 65.3861C132.008 65.7989 132.343 66.1335 132.756 66.1335C133.168 66.1335 133.503 65.7989 133.503 65.3861C133.503 64.9732 133.168 64.6386 132.756 64.6386ZM132.756 62.1159C132.343 62.1159 132.008 62.4505 132.008 62.8633C132.008 63.2762 132.343 63.6108 132.756 63.6108C133.168 63.6108 133.503 63.2762 133.503 62.8633C133.503 62.4505 133.168 62.1159 132.756 62.1159ZM132.756 59.5931C132.343 59.5931 132.008 59.9278 132.008 60.3406C132.008 60.7534 132.343 61.0881 132.756 61.0881C133.168 61.0881 133.503 60.7534 133.503 60.3406C133.503 59.9278 133.168 59.5931 132.756 59.5931ZM130.233 64.6386C129.82 64.6386 129.485 64.9732 129.485 65.3861C129.485 65.7989 129.82 66.1335 130.233 66.1335C130.646 66.1335 130.98 65.7989 130.98 65.3861C130.98 64.9732 130.646 64.6386 130.233 64.6386ZM130.233 62.1159C129.82 62.1159 129.485 62.4505 129.485 62.8633C129.485 63.2762 129.82 63.6108 130.233 63.6108C130.646 63.6108 130.98 63.2762 130.98 62.8633C130.98 62.4505 130.646 62.1159 130.233 62.1159ZM130.233 59.5931C129.82 59.5931 129.485 59.9278 129.485 60.3406C129.485 60.7534 129.82 61.0881 130.233 61.0881C130.646 61.0881 130.98 60.7534 130.98 60.3406C130.98 59.9278 130.646 59.5931 130.233 59.5931Z" fill="#E3E3E3"/>
<path d="M103.618 43.9888C103.205 43.9888 102.871 44.3234 102.871 44.7363C102.871 45.1491 103.205 45.4837 103.618 45.4837C104.031 45.4837 104.366 45.1491 104.366 44.7363C104.366 44.3234 104.031 43.9888 103.618 43.9888ZM103.618 41.4661C103.205 41.4661 102.871 41.8007 102.871 42.2135C102.871 42.6264 103.205 42.961 103.618 42.961C104.031 42.961 104.366 42.6264 104.366 42.2135C104.366 41.8007 104.031 41.4661 103.618 41.4661ZM103.618 38.9433C103.205 38.9433 102.871 39.278 102.871 39.6908C102.871 40.1036 103.205 40.4383 103.618 40.4383C104.031 40.4383 104.366 40.1036 104.366 39.6908C104.366 39.278 104.031 38.9433 103.618 38.9433ZM101.095 43.9888C100.683 43.9888 100.348 44.3234 100.348 44.7363C100.348 45.1491 100.683 45.4837 101.095 45.4837C101.508 45.4837 101.843 45.1491 101.843 44.7363C101.843 44.3234 101.508 43.9888 101.095 43.9888ZM101.095 41.4661C100.683 41.4661 100.348 41.8007 100.348 42.2135C100.348 42.6264 100.683 42.961 101.095 42.961C101.508 42.961 101.843 42.6264 101.843 42.2135C101.843 41.8007 101.508 41.4661 101.095 41.4661ZM101.095 38.9433C100.683 38.9433 100.348 39.278 100.348 39.6908C100.348 40.1036 100.683 40.4383 101.095 40.4383C101.508 40.4383 101.843 40.1036 101.843 39.6908C101.843 39.278 101.508 38.9433 101.095 38.9433ZM98.5727 43.9888C98.1598 43.9888 97.8252 44.3234 97.8252 44.7363C97.8252 45.1491 98.1598 45.4837 98.5727 45.4837C98.9855 45.4837 99.3201 45.1491 99.3201 44.7363C99.3201 44.3234 98.9855 43.9888 98.5727 43.9888ZM98.5727 41.4661C98.1598 41.4661 97.8252 41.8007 97.8252 42.2135C97.8252 42.6264 98.1598 42.961 98.5727 42.961C98.9855 42.961 99.3201 42.6264 99.3201 42.2135C99.3201 41.8007 98.9855 41.4661 98.5727 41.4661ZM98.5727 38.9433C98.1598 38.9433 97.8252 39.278 97.8252 39.6908C97.8252 40.1036 98.1598 40.4383 98.5727 40.4383C98.9855 40.4383 99.3201 40.1036 99.3201 39.6908C99.3201 39.278 98.9855 38.9433 98.5727 38.9433Z" fill="#E3E3E3"/>
<path d="M81.2422 34.1323C80.8293 34.1323 80.4947 34.4669 80.4947 34.8797C80.4947 35.2926 80.8293 35.6272 81.2422 35.6272C81.655 35.6272 81.9896 35.2926 81.9896 34.8797C81.9896 34.4669 81.655 34.1323 81.2422 34.1323ZM81.2422 31.6095C80.8293 31.6095 80.4947 31.9442 80.4947 32.357C80.4947 32.7698 80.8293 33.1045 81.2422 33.1045C81.655 33.1045 81.9896 32.7698 81.9896 32.357C81.9896 31.9442 81.655 31.6095 81.2422 31.6095ZM81.2422 29.0868C80.8293 29.0868 80.4947 29.4214 80.4947 29.8343C80.4947 30.2471 80.8293 30.5817 81.2422 30.5817C81.655 30.5817 81.9896 30.2471 81.9896 29.8343C81.9896 29.4214 81.655 29.0868 81.2422 29.0868ZM78.7194 34.1323C78.3066 34.1323 77.972 34.4669 77.972 34.8797C77.972 35.2926 78.3066 35.6272 78.7194 35.6272C79.1322 35.6272 79.4669 35.2926 79.4669 34.8797C79.4669 34.4669 79.1322 34.1323 78.7194 34.1323ZM78.7194 31.6095C78.3066 31.6095 77.972 31.9442 77.972 32.357C77.972 32.7698 78.3066 33.1045 78.7194 33.1045C79.1322 33.1045 79.4669 32.7698 79.4669 32.357C79.4669 31.9442 79.1322 31.6095 78.7194 31.6095ZM78.7194 29.0868C78.3066 29.0868 77.972 29.4214 77.972 29.8343C77.972 30.2471 78.3066 30.5817 78.7194 30.5817C79.1322 30.5817 79.4669 30.2471 79.4669 29.8343C79.4669 29.4214 79.1322 29.0868 78.7194 29.0868ZM76.1967 34.1323C75.7839 34.1323 75.4492 34.4669 75.4492 34.8797C75.4492 35.2926 75.7839 35.6272 76.1967 35.6272C76.6095 35.6272 76.9442 35.2926 76.9442 34.8797C76.9442 34.4669 76.6095 34.1323 76.1967 34.1323ZM76.1967 31.6095C75.7839 31.6095 75.4492 31.9442 75.4492 32.357C75.4492 32.7698 75.7839 33.1045 76.1967 33.1045C76.6095 33.1045 76.9442 32.7698 76.9442 32.357C76.9442 31.9442 76.6095 31.6095 76.1967 31.6095ZM76.1967 29.0868C75.7839 29.0868 75.4492 29.4214 75.4492 29.8343C75.4492 30.2471 75.7839 30.5817 76.1967 30.5817C76.6095 30.5817 76.9442 30.2471 76.9442 29.8343C76.9442 29.4214 76.6095 29.0868 76.1967 29.0868Z" fill="#E3E3E3"/>
<path d="M43.2763 38.9765C42.8635 38.9765 42.5289 39.3111 42.5289 39.724C42.5289 40.1368 42.8635 40.4714 43.2763 40.4714C43.6892 40.4714 44.0238 40.1368 44.0238 39.724C44.0238 39.3111 43.6892 38.9765 43.2763 38.9765ZM43.2763 36.4538C42.8635 36.4538 42.5289 36.7884 42.5289 37.2012C42.5289 37.6141 42.8635 37.9487 43.2763 37.9487C43.6892 37.9487 44.0238 37.6141 44.0238 37.2012C44.0238 36.7884 43.6892 36.4538 43.2763 36.4538ZM43.2763 33.931C42.8635 33.931 42.5289 34.2657 42.5289 34.6785C42.5289 35.0913 42.8635 35.426 43.2763 35.426C43.6892 35.426 44.0238 35.0913 44.0238 34.6785C44.0238 34.2657 43.6892 33.931 43.2763 33.931ZM40.7536 38.9765C40.3408 38.9765 40.0061 39.3111 40.0061 39.724C40.0061 40.1368 40.3408 40.4714 40.7536 40.4714C41.1664 40.4714 41.5011 40.1368 41.5011 39.724C41.5011 39.3111 41.1664 38.9765 40.7536 38.9765ZM40.7536 36.4538C40.3408 36.4538 40.0061 36.7884 40.0061 37.2012C40.0061 37.6141 40.3408 37.9487 40.7536 37.9487C41.1664 37.9487 41.5011 37.6141 41.5011 37.2012C41.5011 36.7884 41.1664 36.4538 40.7536 36.4538ZM40.7536 33.931C40.3408 33.931 40.0061 34.2657 40.0061 34.6785C40.0061 35.0913 40.3408 35.426 40.7536 35.426C41.1664 35.426 41.5011 35.0913 41.5011 34.6785C41.5011 34.2657 41.1664 33.931 40.7536 33.931ZM38.2309 38.9765C37.8181 38.9765 37.4834 39.3111 37.4834 39.724C37.4834 40.1368 37.8181 40.4714 38.2309 40.4714C38.6437 40.4714 38.9784 40.1368 38.9784 39.724C38.9784 39.3111 38.6437 38.9765 38.2309 38.9765ZM38.2309 36.4538C37.8181 36.4538 37.4834 36.7884 37.4834 37.2012C37.4834 37.6141 37.8181 37.9487 38.2309 37.9487C38.6437 37.9487 38.9784 37.6141 38.9784 37.2012C38.9784 36.7884 38.6437 36.4538 38.2309 36.4538ZM38.2309 33.931C37.8181 33.931 37.4834 34.2657 37.4834 34.6785C37.4834 35.0913 37.8181 35.426 38.2309 35.426C38.6437 35.426 38.9784 35.0913 38.9784 34.6785C38.9784 34.2657 38.6437 33.931 38.2309 33.931Z" fill="#E3E3E3"/>
<path d="M37.5244 21.1205C37.1116 21.1205 36.7769 21.4552 36.7769 21.868C36.7769 22.2808 37.1116 22.6155 37.5244 22.6155C37.9372 22.6155 38.2719 22.2808 38.2719 21.868C38.2719 21.4552 37.9372 21.1205 37.5244 21.1205ZM37.5244 18.5978C37.1116 18.5978 36.7769 18.9325 36.7769 19.3453C36.7769 19.7581 37.1116 20.0928 37.5244 20.0928C37.9372 20.0928 38.2719 19.7581 38.2719 19.3453C38.2719 18.9325 37.9372 18.5978 37.5244 18.5978ZM37.5244 16.0751C37.1116 16.0751 36.7769 16.4097 36.7769 16.8226C36.7769 17.2354 37.1116 17.57 37.5244 17.57C37.9372 17.57 38.2719 17.2354 38.2719 16.8226C38.2719 16.4097 37.9372 16.0751 37.5244 16.0751ZM35.0017 21.1205C34.5888 21.1205 34.2542 21.4552 34.2542 21.868C34.2542 22.2808 34.5888 22.6155 35.0017 22.6155C35.4145 22.6155 35.7491 22.2808 35.7491 21.868C35.7491 21.4552 35.4145 21.1205 35.0017 21.1205ZM35.0017 18.5978C34.5888 18.5978 34.2542 18.9325 34.2542 19.3453C34.2542 19.7581 34.5888 20.0928 35.0017 20.0928C35.4145 20.0928 35.7491 19.7581 35.7491 19.3453C35.7491 18.9325 35.4145 18.5978 35.0017 18.5978ZM35.0017 16.0751C34.5888 16.0751 34.2542 16.4097 34.2542 16.8226C34.2542 17.2354 34.5888 17.57 35.0017 17.57C35.4145 17.57 35.7491 17.2354 35.7491 16.8226C35.7491 16.4097 35.4145 16.0751 35.0017 16.0751ZM32.4789 21.1205C32.0661 21.1205 31.7314 21.4552 31.7314 21.868C31.7314 22.2808 32.0661 22.6155 32.4789 22.6155C32.8917 22.6155 33.2264 22.2808 33.2264 21.868C33.2264 21.4552 32.8917 21.1205 32.4789 21.1205ZM32.4789 18.5978C32.0661 18.5978 31.7314 18.9325 31.7314 19.3453C31.7314 19.7581 32.0661 20.0928 32.4789 20.0928C32.8917 20.0928 33.2264 19.7581 33.2264 19.3453C33.2264 18.9325 32.8917 18.5978 32.4789 18.5978ZM32.4789 16.0751C32.0661 16.0751 31.7314 16.4097 31.7314 16.8226C31.7314 17.2354 32.0661 17.57 32.4789 17.57C32.8917 17.57 33.2264 17.2354 33.2264 16.8226C33.2264 16.4097 32.8917 16.0751 32.4789 16.0751Z" fill="#E3E3E3"/>
<path d="M26.9677 6.90638C26.5549 6.90638 26.2203 7.24103 26.2203 7.65385C26.2203 8.06668 26.5549 8.40133 26.9677 8.40133C27.3806 8.40133 27.7152 8.06668 27.7152 7.65385C27.7152 7.24103 27.3806 6.90638 26.9677 6.90638ZM26.9677 4.38365C26.5549 4.38365 26.2203 4.7183 26.2203 5.13112C26.2203 5.54394 26.5549 5.8786 26.9677 5.8786C27.3806 5.8786 27.7152 5.54394 27.7152 5.13112C27.7152 4.7183 27.3806 4.38365 26.9677 4.38365ZM26.9677 1.86091C26.5549 1.86091 26.2203 2.19557 26.2203 2.60839C26.2203 3.02121 26.5549 3.35587 26.9677 3.35587C27.3806 3.35587 27.7152 3.02121 27.7152 2.60839C27.7152 2.19557 27.3806 1.86091 26.9677 1.86091ZM24.445 6.90638C24.0322 6.90638 23.6975 7.24103 23.6975 7.65385C23.6975 8.06668 24.0322 8.40133 24.445 8.40133C24.8578 8.40133 25.1925 8.06668 25.1925 7.65385C25.1925 7.24103 24.8578 6.90638 24.445 6.90638ZM24.445 4.38365C24.0322 4.38365 23.6975 4.7183 23.6975 5.13112C23.6975 5.54394 24.0322 5.8786 24.445 5.8786C24.8578 5.8786 25.1925 5.54394 25.1925 5.13112C25.1925 4.7183 24.8578 4.38365 24.445 4.38365ZM24.445 1.86091C24.0322 1.86091 23.6975 2.19557 23.6975 2.60839C23.6975 3.02121 24.0322 3.35587 24.445 3.35587C24.8578 3.35587 25.1925 3.02121 25.1925 2.60839C25.1925 2.19557 24.8578 1.86091 24.445 1.86091ZM21.9223 6.90638C21.5095 6.90638 21.1748 7.24103 21.1748 7.65385C21.1748 8.06668 21.5095 8.40133 21.9223 8.40133C22.3351 8.40133 22.6698 8.06668 22.6698 7.65385C22.6698 7.24103 22.3351 6.90638 21.9223 6.90638ZM21.9223 4.38365C21.5095 4.38365 21.1748 4.7183 21.1748 5.13112C21.1748 5.54394 21.5095 5.8786 21.9223 5.8786C22.3351 5.8786 22.6698 5.54394 22.6698 5.13112C22.6698 4.7183 22.3351 4.38365 21.9223 4.38365ZM21.9223 1.86091C21.5095 1.86091 21.1748 2.19557 21.1748 2.60839C21.1748 3.02121 21.5095 3.35587 21.9223 3.35587C22.3351 3.35587 22.6698 3.02121 22.6698 2.60839C22.6698 2.19557 22.3351 1.86091 21.9223 1.86091Z" fill="#E3E3E3"/>
<path d="M142.094 76.1611C142.094 75.4885 141.931 74.8724 141.606 74.3129C141.281 73.7535 140.838 73.314 140.276 72.9943C139.721 72.668 139.108 72.5048 138.438 72.5048C137.767 72.5048 137.151 72.668 136.589 72.9943C136.034 73.314 135.594 73.7535 135.269 74.3129C134.944 74.8724 134.781 75.4885 134.781 76.1611C134.781 76.8338 134.944 77.4498 135.269 78.0093C135.594 78.5687 136.034 79.0116 136.589 79.3379C137.151 79.6576 137.767 79.8174 138.438 79.8174C139.108 79.8174 139.721 79.6576 140.276 79.3379C140.838 79.0116 141.281 78.5687 141.606 78.0093C141.931 77.4498 142.094 76.8338 142.094 76.1611ZM139.992 77.715H136.884V74.6072H139.992V77.715Z" fill="#E3E3E3"/>
<path d="M138.126 71.1888L141.931 67.3839L138.126 63.579L134.321 67.3839L138.126 71.1888Z" fill="#E3E3E3"/>
<path d="M137.43 61.2482L141.403 57.2754L137.43 53.3025L133.457 57.2754L137.43 61.2482Z" fill="#E3E3E3"/>
<path d="M5.01261 92.7876C5.01261 92.4828 4.93897 92.2036 4.79167 91.95C4.64436 91.6964 4.44334 91.4972 4.18863 91.3523C3.93699 91.2044 3.65924 91.1305 3.35543 91.1305C3.05161 91.1305 2.77233 91.2044 2.51761 91.3523C2.26597 91.4972 2.06649 91.6964 1.91918 91.95C1.77188 92.2036 1.69824 92.4828 1.69824 92.7876C1.69824 93.0925 1.77188 93.3717 1.91918 93.6253C2.06649 93.8789 2.26597 94.0796 2.51761 94.2275C2.77233 94.3724 3.05161 94.4448 3.35543 94.4448C3.65924 94.4448 3.93699 94.3724 4.18863 94.2275C4.44334 94.0796 4.64436 93.8789 4.79167 93.6253C4.93897 93.3717 5.01261 93.0925 5.01261 92.7876ZM4.05973 93.492H2.65112V92.0833H4.05973V93.492Z" fill="#E3E3E3"/>
<path d="M51.4218 60.5277C51.2298 60.5277 51.0741 60.6834 51.0741 60.8754C51.0741 61.0674 51.2298 61.223 51.4218 61.223C51.6138 61.223 51.7694 61.0674 51.7694 60.8754C51.7694 60.6834 51.6138 60.5277 51.4218 60.5277ZM51.4218 59.3544C51.2298 59.3544 51.0741 59.5101 51.0741 59.7021C51.0741 59.8941 51.2298 60.0497 51.4218 60.0497C51.6138 60.0497 51.7694 59.8941 51.7694 59.7021C51.7694 59.5101 51.6138 59.3544 51.4218 59.3544ZM51.4218 58.1811C51.2298 58.1811 51.0741 58.3368 51.0741 58.5288C51.0741 58.7208 51.2298 58.8764 51.4218 58.8764C51.6138 58.8764 51.7694 58.7208 51.7694 58.5288C51.7694 58.3368 51.6138 58.1811 51.4218 58.1811ZM50.2485 60.5277C50.0565 60.5277 49.9008 60.6834 49.9008 60.8754C49.9008 61.0674 50.0565 61.223 50.2485 61.223C50.4405 61.223 50.5961 61.0674 50.5961 60.8754C50.5961 60.6834 50.4405 60.5277 50.2485 60.5277ZM50.2485 59.3544C50.0565 59.3544 49.9008 59.5101 49.9008 59.7021C49.9008 59.8941 50.0565 60.0497 50.2485 60.0497C50.4405 60.0497 50.5961 59.8941 50.5961 59.7021C50.5961 59.5101 50.4405 59.3544 50.2485 59.3544ZM50.2485 58.1811C50.0565 58.1811 49.9008 58.3368 49.9008 58.5288C49.9008 58.7208 50.0565 58.8764 50.2485 58.8764C50.4405 58.8764 50.5961 58.7208 50.5961 58.5288C50.5961 58.3368 50.4405 58.1811 50.2485 58.1811ZM49.0752 60.5277C48.8832 60.5277 48.7275 60.6834 48.7275 60.8754C48.7275 61.0674 48.8832 61.223 49.0752 61.223C49.2672 61.223 49.4228 61.0674 49.4228 60.8754C49.4228 60.6834 49.2672 60.5277 49.0752 60.5277ZM49.0752 59.3544C48.8832 59.3544 48.7275 59.5101 48.7275 59.7021C48.7275 59.8941 48.8832 60.0497 49.0752 60.0497C49.2672 60.0497 49.4228 59.8941 49.4228 59.7021C49.4228 59.5101 49.2672 59.3544 49.0752 59.3544ZM49.0752 58.1811C48.8832 58.1811 48.7275 58.3368 48.7275 58.5288C48.7275 58.7208 48.8832 58.8764 49.0752 58.8764C49.2672 58.8764 49.4228 58.7208 49.4228 58.5288C49.4228 58.3368 49.2672 58.1811 49.0752 58.1811Z" fill="#E3E3E3"/>
<path d="M9.36449 63.4161L11.4809 61.2996L9.36449 59.1832L7.24805 61.2996L9.36449 63.4161Z" fill="#E3E3E3"/>
<path d="M17.1478 71.3849C16.7399 71.3849 16.4093 71.7156 16.4093 72.1235C16.4093 72.5313 16.7399 72.862 17.1478 72.862C17.5556 72.862 17.8863 72.5313 17.8863 72.1235C17.8863 71.7156 17.5556 71.3849 17.1478 71.3849ZM15.3938 73.1389C14.9859 73.1389 14.6553 73.4696 14.6553 73.8774C14.6553 74.2853 14.9859 74.616 15.3938 74.616C15.8017 74.616 16.1323 74.2853 16.1323 73.8774C16.1323 73.4696 15.8017 73.1389 15.3938 73.1389Z" fill="#E3E3E3"/>
<path d="M22.4666 59.4898C21.9901 59.4898 21.6038 59.8761 21.6038 60.3526C21.6038 60.8291 21.9901 61.2154 22.4666 61.2154C22.9431 61.2154 23.3294 60.8291 23.3294 60.3526C23.3294 59.8761 22.9431 59.4898 22.4666 59.4898ZM20.4175 61.5389C19.941 61.5389 19.5547 61.9252 19.5547 62.4017C19.5547 62.8782 19.941 63.2645 20.4175 63.2645C20.894 63.2645 21.2803 62.8782 21.2803 62.4017C21.2803 61.9252 20.894 61.5389 20.4175 61.5389Z" fill="#E3E3E3"/>
<path d="M24.0439 63.8013V66.1813H26.424V63.8013H24.0439ZM25.948 64.9913C25.948 65.3857 25.6283 65.7053 25.2339 65.7053C24.8396 65.7053 24.5199 65.3857 24.5199 64.9913C24.5199 64.597 24.8396 64.2773 25.2339 64.2773C25.6283 64.2773 25.948 64.597 25.948 64.9913Z" fill="#E3E3E3"/>
<path d="M2.99316 47.0886L2.99316 51.1469H7.05152L7.05152 47.0886H2.99316ZM6.23985 49.1178C6.23985 49.7902 5.69476 50.3353 5.02234 50.3353C4.34993 50.3353 3.80484 49.7902 3.80484 49.1178C3.80484 48.4454 4.34993 47.9003 5.02234 47.9003C5.69476 47.9003 6.23985 48.4454 6.23985 49.1178Z" fill="#E3E3E3"/>
<path d="M27.7393 45.7723V49.6652H31.6321V45.7723H27.7393ZM30.8536 47.7188C30.8536 48.3638 30.3307 48.8866 29.6857 48.8866C29.0407 48.8866 28.5178 48.3638 28.5178 47.7188C28.5178 47.0738 29.0407 46.5509 29.6857 46.5509C30.3307 46.5509 30.8536 47.0738 30.8536 47.7188Z" fill="#E3E3E3"/>
<path d="M6.88158 41.4123C6.88158 40.9658 6.77373 40.5569 6.55798 40.1855C6.34225 39.8141 6.04782 39.5224 5.67477 39.3102C5.30622 39.0935 4.89943 38.9852 4.45446 38.9852C4.00949 38.9852 3.60045 39.0935 3.22739 39.3102C2.85885 39.5224 2.56668 39.8141 2.35094 40.1855C2.1352 40.5569 2.02734 40.9658 2.02734 41.4123C2.02734 41.8588 2.1352 42.2678 2.35094 42.6392C2.56668 43.0105 2.85885 43.3045 3.22739 43.5211C3.60045 43.7333 4.00949 43.8394 4.45446 43.8394C4.89943 43.8394 5.30622 43.7333 5.67477 43.5211C6.04783 43.3045 6.34225 43.0105 6.55798 42.6392C6.77373 42.2678 6.88158 41.8588 6.88158 41.4123ZM5.48599 42.4438H3.42294L3.42294 40.3808H5.48599V42.4438Z" fill="#E3E3E3"/>
<path d="M13.707 46.1823V50.2643H17.789V46.1823H13.707ZM16.9726 48.2233C16.9726 48.8997 16.4244 49.4479 15.748 49.4479C15.0717 49.4479 14.5234 48.8997 14.5234 48.2233C14.5234 47.547 15.0717 46.9987 15.748 46.9987C16.4244 46.9987 16.9726 47.547 16.9726 48.2233Z" fill="#E3E3E3"/>
<path d="M4.1472 35.3231C4.1472 34.8617 4.03575 34.4391 3.8128 34.0553C3.58986 33.6716 3.2856 33.37 2.9001 33.1508C2.51923 32.9269 2.09886 32.8149 1.63903 32.8149C1.1792 32.8149 0.756501 32.9269 0.37098 33.1508C-0.009871 33.37 -0.311795 33.6716 -0.534741 34.0553C-0.757682 34.4391 -0.869141 34.8617 -0.869141 35.3231C-0.869141 35.7845 -0.757682 36.2071 -0.534741 36.5909C-0.311795 36.9747 -0.009871 37.2785 0.37098 37.5023C0.756501 37.7216 1.1792 37.8313 1.63903 37.8313C2.09886 37.8313 2.51923 37.7216 2.9001 37.5023C3.28561 37.2785 3.58986 36.9747 3.8128 36.5909C4.03575 36.2071 4.1472 35.7845 4.1472 35.3231ZM2.705 36.3891H0.573058L0.573058 34.2571H2.705L2.705 36.3891Z" fill="#E3E3E3"/>
<path d="M12.2047 33.1772C11.6536 33.1772 11.2068 33.6239 11.2068 34.175C11.2068 34.7261 11.6536 35.1729 12.2047 35.1729C12.7558 35.1729 13.2026 34.7261 13.2026 34.175C13.2026 33.6239 12.7558 33.1772 12.2047 33.1772ZM9.83478 35.5471C9.28367 35.5471 8.83691 35.9939 8.83691 36.545C8.83691 37.0961 9.28367 37.5428 9.83478 37.5428C10.3859 37.5428 10.8326 37.0961 10.8326 36.545C10.8326 35.9939 10.3859 35.5471 9.83478 35.5471Z" fill="#E3E3E3"/>
<path d="M20.6874 39.7637C20.1572 39.7637 19.7274 40.1936 19.7274 40.7238C19.7274 41.254 20.1572 41.6838 20.6874 41.6838C21.2176 41.6838 21.6474 41.254 21.6474 40.7238C21.6474 40.1936 21.2176 39.7637 20.6874 39.7637ZM18.4073 42.0438C17.8771 42.0438 17.4473 42.4737 17.4473 43.0039C17.4473 43.5341 17.8771 43.9639 18.4073 43.9639C18.9375 43.9639 19.3673 43.5341 19.3673 43.0039C19.3673 42.4737 18.9375 42.0438 18.4073 42.0438Z" fill="#E3E3E3"/>
<path d="M14.7392 30.5661C14.1822 30.5661 13.7306 31.0177 13.7306 31.5748C13.7306 32.1319 14.1822 32.5834 14.7392 32.5834C15.2963 32.5834 15.7479 32.1319 15.7479 31.5748C15.7479 31.0177 15.2963 30.5661 14.7392 30.5661ZM12.3436 32.9617C11.7866 32.9617 11.335 33.4133 11.335 33.9704C11.335 34.5274 11.7866 34.979 12.3436 34.979C12.9007 34.979 13.3523 34.5274 13.3523 33.9704C13.3523 33.4133 12.9007 32.9617 12.3436 32.9617Z" fill="#E3E3E3"/>
<path d="M9.7076 34.7715L13.3234 31.1557L9.7076 27.5399L6.0918 31.1557L9.7076 34.7715Z" fill="#E3E3E3"/>
<path d="M-1.04121 23.6304C-1.82805 23.6304 -2.46592 24.2683 -2.46592 25.0551C-2.46592 25.842 -1.82805 26.4798 -1.04121 26.4798C-0.254361 26.4798 0.383504 25.842 0.383504 25.0551C0.383504 24.2683 -0.254361 23.6304 -1.04121 23.6304ZM-4.4249 27.0141C-5.21174 27.0141 -5.84961 27.6519 -5.84961 28.4388C-5.84961 29.2256 -5.21174 29.8635 -4.4249 29.8635C-3.63805 29.8635 -3.00019 29.2256 -3.00019 28.4388C-3.00019 27.6519 -3.63805 27.0141 -4.4249 27.0141Z" fill="#E3E3E3"/>
<path d="M8.28665 40.2574C8.28665 39.6096 8.13018 39.0163 7.81717 38.4775C7.50418 37.9387 7.07703 37.5155 6.53582 37.2076C6.00111 36.8933 5.41095 36.7361 4.76539 36.7361C4.11983 36.7361 3.5264 36.8933 2.98516 37.2076C2.45048 37.5155 2.02661 37.9388 1.71361 38.4775C1.40062 39.0163 1.24414 39.6096 1.24414 40.2574C1.24414 40.9052 1.40062 41.4985 1.71361 42.0373C2.02661 42.576 2.45048 43.0026 2.98516 43.3168C3.5264 43.6247 4.11983 43.7786 4.76539 43.7786C5.41095 43.7786 6.00111 43.6247 6.53582 43.3168C7.07704 43.0025 7.50418 42.576 7.81717 42.0373C8.13018 41.4985 8.28665 40.9052 8.28665 40.2574ZM6.26193 41.7539H3.26886V38.7609H6.26193L6.26193 41.7539Z" fill="#E3E3E3"/>
<path d="M19.8613 34.2609V40.6832H26.2835V34.2609H19.8613ZM24.9991 37.4721C24.9991 38.5361 24.1365 39.3987 23.0724 39.3987C22.0084 39.3987 21.1458 38.5361 21.1458 37.4721C21.1458 36.408 22.0084 35.5454 23.0724 35.5454C24.1365 35.5454 24.9991 36.408 24.9991 37.4721Z" fill="#E3E3E3"/>
<path d="M17.4726 46.1399C17.0598 46.1399 16.7252 46.4745 16.7252 46.8873C16.7252 47.3002 17.0598 47.6348 17.4726 47.6348C17.8855 47.6348 18.2201 47.3002 18.2201 46.8873C18.2201 46.4745 17.8855 46.1399 17.4726 46.1399ZM17.4726 43.6171C17.0598 43.6171 16.7252 43.9518 16.7252 44.3646C16.7252 44.7774 17.0598 45.1121 17.4726 45.1121C17.8855 45.1121 18.2201 44.7774 18.2201 44.3646C18.2201 43.9518 17.8855 43.6171 17.4726 43.6171ZM17.4726 41.0944C17.0598 41.0944 16.7252 41.4291 16.7252 41.8419C16.7252 42.2547 17.0598 42.5894 17.4726 42.5894C17.8855 42.5894 18.2201 42.2547 18.2201 41.8419C18.2201 41.4291 17.8855 41.0944 17.4726 41.0944ZM14.9499 46.1399C14.5371 46.1399 14.2024 46.4745 14.2024 46.8873C14.2024 47.3002 14.5371 47.6348 14.9499 47.6348C15.3627 47.6348 15.6974 47.3002 15.6974 46.8873C15.6974 46.4745 15.3627 46.1399 14.9499 46.1399ZM14.9499 43.6171C14.5371 43.6171 14.2024 43.9518 14.2024 44.3646C14.2024 44.7774 14.5371 45.1121 14.9499 45.1121C15.3627 45.1121 15.6974 44.7774 15.6974 44.3646C15.6974 43.9518 15.3627 43.6171 14.9499 43.6171ZM14.9499 41.0944C14.5371 41.0944 14.2024 41.4291 14.2024 41.8419C14.2024 42.2547 14.5371 42.5894 14.9499 42.5894C15.3627 42.5894 15.6974 42.2547 15.6974 41.8419C15.6974 41.4291 15.3627 41.0944 14.9499 41.0944ZM12.4272 46.1399C12.0143 46.1399 11.6797 46.4745 11.6797 46.8873C11.6797 47.3002 12.0143 47.6348 12.4272 47.6348C12.84 47.6348 13.1746 47.3002 13.1746 46.8873C13.1746 46.4745 12.84 46.1399 12.4272 46.1399ZM12.4272 43.6171C12.0143 43.6171 11.6797 43.9518 11.6797 44.3646C11.6797 44.7774 12.0143 45.1121 12.4272 45.1121C12.84 45.1121 13.1746 44.7774 13.1746 44.3646C13.1746 43.9518 12.84 43.6171 12.4272 43.6171ZM12.4272 41.0944C12.0143 41.0944 11.6797 41.4291 11.6797 41.8419C11.6797 42.2547 12.0143 42.5894 12.4272 42.5894C12.84 42.5894 13.1746 42.2547 13.1746 41.8419C13.1746 41.4291 12.84 41.0944 12.4272 41.0944Z" fill="#E3E3E3"/>
<path d="M3.46579 76.5805C3.05297 76.5805 2.71831 76.9151 2.71831 77.328C2.71831 77.7408 3.05297 78.0754 3.46579 78.0754C3.87861 78.0754 4.21327 77.7408 4.21327 77.328C4.21327 76.9151 3.87861 76.5805 3.46579 76.5805ZM3.46579 74.0578C3.05297 74.0578 2.71831 74.3924 2.71831 74.8052C2.71831 75.2181 3.05297 75.5527 3.46579 75.5527C3.87861 75.5527 4.21327 75.2181 4.21327 74.8052C4.21327 74.3924 3.87861 74.0578 3.46579 74.0578ZM3.46579 71.535C3.05297 71.535 2.71831 71.8697 2.71831 72.2825C2.71831 72.6953 3.05297 73.03 3.46579 73.03C3.87861 73.03 4.21327 72.6953 4.21327 72.2825C4.21327 71.8697 3.87861 71.535 3.46579 71.535ZM0.943059 76.5805C0.530237 76.5805 0.195583 76.9151 0.195583 77.328C0.195583 77.7408 0.530237 78.0754 0.943059 78.0754C1.35588 78.0754 1.69054 77.7408 1.69054 77.328C1.69054 76.9151 1.35588 76.5805 0.943059 76.5805ZM0.943059 74.0578C0.530237 74.0578 0.195583 74.3924 0.195583 74.8052C0.195583 75.2181 0.530237 75.5527 0.943059 75.5527C1.35588 75.5527 1.69054 75.2181 1.69054 74.8052C1.69054 74.3924 1.35588 74.0578 0.943059 74.0578ZM0.943059 71.535C0.530237 71.535 0.195583 71.8697 0.195583 72.2825C0.195583 72.6953 0.530237 73.03 0.943059 73.03C1.35588 73.03 1.69054 72.6953 1.69054 72.2825C1.69054 71.8697 1.35588 71.535 0.943059 71.535ZM-1.57967 76.5805C-1.9925 76.5805 -2.32715 76.9151 -2.32715 77.328C-2.32715 77.7408 -1.9925 78.0754 -1.57967 78.0754C-1.16685 78.0754 -0.832196 77.7408 -0.832196 77.328C-0.832196 76.9151 -1.16685 76.5805 -1.57967 76.5805ZM-1.57967 74.0578C-1.9925 74.0578 -2.32715 74.3924 -2.32715 74.8052C-2.32715 75.2181 -1.9925 75.5527 -1.57967 75.5527C-1.16685 75.5527 -0.832196 75.2181 -0.832196 74.8052C-0.832196 74.3924 -1.16685 74.0578 -1.57967 74.0578ZM-1.57967 71.535C-1.9925 71.535 -2.32715 71.8697 -2.32715 72.2825C-2.32715 72.6953 -1.9925 73.03 -1.57967 73.03C-1.16685 73.03 -0.832196 72.6953 -0.832196 72.2825C-0.832196 71.8697 -1.16685 71.535 -1.57967 71.535Z" fill="#E3E3E3"/>
<rect x="195" y="198" width="155" height="37.5" rx="10.1996" fill="url(#paint0_radial_2195_1992)"/>
<path d="M214.327 221.25V220.65H216.559V213.45H214.327V212.85H219.439V213.45H217.207V220.65H219.439V221.25H214.327ZM221.349 221.25V212.85H222.009L226.197 220.062V212.85H226.821V221.25H226.173L221.973 214.014V221.25H221.349ZM228.982 221.25V212.85H233.962V213.45H229.63V216.774H233.458V217.374H229.63V221.25H228.982ZM238.487 221.322C236.484 221.322 235.427 219.594 235.427 217.05C235.427 214.506 236.484 212.778 238.487 212.778C240.492 212.778 241.547 214.506 241.547 217.05C241.547 219.594 240.492 221.322 238.487 221.322ZM238.487 220.722C240.132 220.722 240.875 219.282 240.875 217.05C240.875 214.818 240.132 213.378 238.487 213.378C236.844 213.378 236.1 214.806 236.1 217.05C236.1 219.294 236.844 220.722 238.487 220.722ZM251.965 217.002C251.965 217.394 251.925 217.766 251.845 218.118C251.765 218.47 251.641 218.786 251.473 219.066C251.313 219.338 251.109 219.554 250.861 219.714C250.621 219.874 250.333 219.954 249.997 219.954C249.637 219.954 249.345 219.85 249.121 219.642C248.897 219.426 248.773 219.146 248.749 218.802H248.713C248.553 219.178 248.317 219.466 248.005 219.666C247.693 219.858 247.337 219.954 246.937 219.954C246.337 219.954 245.873 219.762 245.545 219.378C245.225 218.994 245.065 218.462 245.065 217.782C245.065 217.262 245.169 216.802 245.377 216.402C245.593 215.994 245.889 215.674 246.265 215.442C246.649 215.21 247.097 215.094 247.609 215.094C247.929 215.094 248.237 215.122 248.533 215.178C248.829 215.226 249.081 215.286 249.289 215.358L249.193 217.446C249.185 217.59 249.177 217.73 249.169 217.866C249.161 217.994 249.157 218.118 249.157 218.238C249.157 218.662 249.229 218.97 249.373 219.162C249.525 219.346 249.745 219.438 250.033 219.438C250.337 219.438 250.589 219.33 250.789 219.114C250.989 218.898 251.137 218.606 251.233 218.238C251.337 217.87 251.389 217.458 251.389 217.002C251.389 216.234 251.237 215.57 250.933 215.01C250.637 214.45 250.209 214.022 249.649 213.726C249.089 213.422 248.425 213.27 247.657 213.27C246.977 213.27 246.361 213.378 245.809 213.594C245.265 213.802 244.801 214.106 244.417 214.506C244.033 214.906 243.737 215.386 243.529 215.946C243.321 216.506 243.217 217.138 243.217 217.842C243.217 218.682 243.365 219.402 243.661 220.002C243.965 220.594 244.401 221.046 244.969 221.358C245.545 221.678 246.237 221.838 247.045 221.838C247.493 221.838 247.929 221.79 248.353 221.694C248.785 221.598 249.185 221.478 249.553 221.334V221.91C249.209 222.054 248.825 222.17 248.401 222.258C247.985 222.346 247.533 222.39 247.045 222.39C246.125 222.39 245.333 222.206 244.669 221.838C244.013 221.478 243.509 220.958 243.157 220.278C242.805 219.598 242.629 218.794 242.629 217.866C242.629 217.082 242.745 216.374 242.977 215.742C243.217 215.11 243.557 214.57 243.997 214.122C244.437 213.674 244.965 213.33 245.581 213.09C246.205 212.85 246.897 212.73 247.657 212.73C248.305 212.73 248.893 212.83 249.421 213.03C249.949 213.222 250.401 213.506 250.777 213.882C251.161 214.25 251.453 214.698 251.653 215.226C251.861 215.754 251.965 216.346 251.965 217.002ZM245.689 217.794C245.689 218.338 245.801 218.75 246.025 219.03C246.257 219.302 246.585 219.438 247.009 219.438C247.513 219.438 247.893 219.266 248.149 218.922C248.405 218.57 248.553 218.07 248.593 217.422L248.677 215.766C248.533 215.718 248.373 215.682 248.197 215.658C248.021 215.634 247.825 215.622 247.609 215.622C247.201 215.622 246.853 215.718 246.565 215.91C246.277 216.102 246.057 216.362 245.905 216.69C245.761 217.01 245.689 217.378 245.689 217.794ZM253.233 221.25V212.85H254.001L256.113 217.002L258.225 212.85H258.969V221.25H258.381V213.882L256.389 217.734H255.813L253.821 213.882V221.25H253.233ZM260.879 221.25V212.85H265.895V213.45H261.527V216.654H265.271V217.254H261.527V220.65H266.051V221.25H260.879ZM267.768 221.25V212.85H269.892C272.328 212.85 273.576 214.41 273.576 217.05C273.576 219.678 272.328 221.25 269.892 221.25H267.768ZM268.416 220.65H269.892C271.956 220.65 272.916 219.342 272.916 217.05C272.916 214.746 271.956 213.45 269.892 213.45H268.416V220.65ZM277.933 221.322C275.797 221.322 274.657 219.69 274.657 217.05C274.657 214.41 275.797 212.778 277.957 212.778C279.505 212.778 280.537 213.714 280.861 215.43H280.177C279.877 214.062 279.145 213.378 277.957 213.378C276.217 213.378 275.317 214.782 275.317 217.05C275.317 219.354 276.193 220.722 277.933 220.722C279.145 220.722 279.865 220.05 280.165 218.658H280.849C280.525 220.398 279.529 221.322 277.933 221.322ZM282.183 221.25V212.85H282.831V216.666H286.983V212.85H287.631V221.25H286.983V217.266H282.831V221.25H282.183ZM289.684 221.25V212.85H294.7V213.45H290.332V216.654H294.076V217.254H290.332V220.65H294.856V221.25H289.684ZM296.442 221.25V212.85H297.21L299.322 217.002L301.434 212.85H302.178V221.25H301.59V213.882L299.598 217.734H299.022L297.03 213.882V221.25H296.442ZM306.511 221.31C306.211 221.31 305.983 221.094 305.983 220.782C305.983 220.482 306.211 220.266 306.511 220.266C306.811 220.266 307.039 220.482 307.039 220.782C307.039 221.094 306.811 221.31 306.511 221.31ZM311.456 221.25V212.85H312.104V220.65H316.484V221.25H311.456ZM320.59 221.25V213.45H317.71V212.85H324.118V213.45H321.238V221.25H320.59ZM325.379 221.25V212.85H327.503C329.939 212.85 331.187 214.41 331.187 217.05C331.187 219.678 329.939 221.25 327.503 221.25H325.379ZM326.027 220.65H327.503C329.567 220.65 330.527 219.342 330.527 217.05C330.527 214.746 329.567 213.45 327.503 213.45H326.027V220.65Z" fill="#FAFAFA"/>
<defs>
<radialGradient id="paint0_radial_2195_1992" cx="0" cy="0" r="1" gradientTransform="matrix(-340.5 -58.5 53.5249 -355.288 500 270.5)" gradientUnits="userSpaceOnUse">
<stop offset="0.0200485" stop-color="#A4989B"/>
<stop offset="0.332613" stop-color="#A1A1A9"/>
<stop offset="0.649385" stop-color="#ADB9BC"/>
<stop offset="0.94719" stop-color="#A3AEA7"/>
</radialGradient>
</defs>
</svg>
